<mxfile host="app.diagrams.net" agent="Mozilla/5.0 (Windows NT 10.0; Win64; x64) AppleWebKit/537.36 (KHTML, like Gecko) Chrome/129.0.0.0 Safari/537.36" version="24.7.17">
  <diagram name="第 1 页" id="E_BXFaPfvtu5mYQQo9au">
    <mxGraphModel grid="1" page="1" gridSize="10" guides="1" tooltips="1" connect="1" arrows="1" fold="1" pageScale="1" pageWidth="827" pageHeight="1169" math="0" shadow="0">
      <root>
        <mxCell id="0" />
        <mxCell id="1" parent="0" />
        <mxCell id="hw-Cy0S7zGGRTdD7gFje-3" value="&lt;font style=&quot;vertical-align: inherit;&quot;&gt;&lt;font style=&quot;vertical-align: inherit;&quot;&gt;&lt;font style=&quot;vertical-align: inherit;&quot;&gt;&lt;font style=&quot;vertical-align: inherit;&quot;&gt;租屋系統網站&lt;/font&gt;&lt;/font&gt;&lt;/font&gt;&lt;/font&gt;" style="swimlane;whiteSpace=wrap;html=1;startSize=23;" vertex="1" parent="1">
          <mxGeometry x="190" width="550" height="1010" as="geometry" />
        </mxCell>
        <mxCell id="ZxicevR8nljUy3uReArG-44" style="rounded=0;orthogonalLoop=1;jettySize=auto;html=1;exitX=1;exitY=0.5;exitDx=0;exitDy=0;entryX=0;entryY=0.5;entryDx=0;entryDy=0;" edge="1" parent="hw-Cy0S7zGGRTdD7gFje-3" source="hw-Cy0S7zGGRTdD7gFje-12" target="ZxicevR8nljUy3uReArG-43">
          <mxGeometry relative="1" as="geometry" />
        </mxCell>
        <mxCell id="ZxicevR8nljUy3uReArG-45" style="edgeStyle=orthogonalEdgeStyle;rounded=0;orthogonalLoop=1;jettySize=auto;html=1;exitX=1;exitY=0.5;exitDx=0;exitDy=0;entryX=0;entryY=0.5;entryDx=0;entryDy=0;" edge="1" parent="hw-Cy0S7zGGRTdD7gFje-3" source="hw-Cy0S7zGGRTdD7gFje-12" target="ZxicevR8nljUy3uReArG-42">
          <mxGeometry relative="1" as="geometry" />
        </mxCell>
        <mxCell id="ZxicevR8nljUy3uReArG-46" style="rounded=0;orthogonalLoop=1;jettySize=auto;html=1;exitX=1;exitY=0.5;exitDx=0;exitDy=0;entryX=0;entryY=0.5;entryDx=0;entryDy=0;" edge="1" parent="hw-Cy0S7zGGRTdD7gFje-3" source="hw-Cy0S7zGGRTdD7gFje-12" target="ZxicevR8nljUy3uReArG-41">
          <mxGeometry relative="1" as="geometry" />
        </mxCell>
        <mxCell id="hw-Cy0S7zGGRTdD7gFje-12" value="&lt;font style=&quot;vertical-align: inherit;&quot;&gt;&lt;font style=&quot;vertical-align: inherit;&quot;&gt;&lt;font style=&quot;vertical-align: inherit;&quot;&gt;&lt;font style=&quot;vertical-align: inherit;&quot;&gt;PO文&lt;/font&gt;&lt;/font&gt;&lt;/font&gt;&lt;/font&gt;" style="ellipse;whiteSpace=wrap;html=1;" vertex="1" parent="hw-Cy0S7zGGRTdD7gFje-3">
          <mxGeometry x="50" y="680" width="90" height="50" as="geometry" />
        </mxCell>
        <mxCell id="ZxicevR8nljUy3uReArG-1" value="&lt;font style=&quot;vertical-align: inherit;&quot;&gt;&lt;font style=&quot;vertical-align: inherit;&quot;&gt;搜尋房屋&lt;/font&gt;&lt;/font&gt;" style="ellipse;whiteSpace=wrap;html=1;" vertex="1" parent="hw-Cy0S7zGGRTdD7gFje-3">
          <mxGeometry x="50" y="60" width="90" height="50" as="geometry" />
        </mxCell>
        <mxCell id="ZxicevR8nljUy3uReArG-22" style="edgeStyle=orthogonalEdgeStyle;rounded=0;orthogonalLoop=1;jettySize=auto;html=1;exitX=1;exitY=0.5;exitDx=0;exitDy=0;entryX=0;entryY=0.5;entryDx=0;entryDy=0;" edge="1" parent="hw-Cy0S7zGGRTdD7gFje-3" source="ZxicevR8nljUy3uReArG-19" target="ZxicevR8nljUy3uReArG-21">
          <mxGeometry relative="1" as="geometry" />
        </mxCell>
        <mxCell id="ZxicevR8nljUy3uReArG-24" style="rounded=0;orthogonalLoop=1;jettySize=auto;html=1;exitX=1;exitY=0.5;exitDx=0;exitDy=0;entryX=0;entryY=0.5;entryDx=0;entryDy=0;" edge="1" parent="hw-Cy0S7zGGRTdD7gFje-3" source="ZxicevR8nljUy3uReArG-19" target="ZxicevR8nljUy3uReArG-23">
          <mxGeometry relative="1" as="geometry" />
        </mxCell>
        <mxCell id="ZxicevR8nljUy3uReArG-26" style="rounded=0;orthogonalLoop=1;jettySize=auto;html=1;exitX=1;exitY=0.5;exitDx=0;exitDy=0;entryX=0;entryY=0.5;entryDx=0;entryDy=0;" edge="1" parent="hw-Cy0S7zGGRTdD7gFje-3" source="ZxicevR8nljUy3uReArG-19" target="ZxicevR8nljUy3uReArG-25">
          <mxGeometry relative="1" as="geometry" />
        </mxCell>
        <mxCell id="ZxicevR8nljUy3uReArG-19" value="收藏房屋" style="ellipse;whiteSpace=wrap;html=1;" vertex="1" parent="hw-Cy0S7zGGRTdD7gFje-3">
          <mxGeometry x="50" y="200" width="90" height="50" as="geometry" />
        </mxCell>
        <mxCell id="ZxicevR8nljUy3uReArG-21" value="查看收藏" style="ellipse;whiteSpace=wrap;html=1;" vertex="1" parent="hw-Cy0S7zGGRTdD7gFje-3">
          <mxGeometry x="200" y="200" width="90" height="50" as="geometry" />
        </mxCell>
        <mxCell id="ZxicevR8nljUy3uReArG-23" value="新增收藏" style="ellipse;whiteSpace=wrap;html=1;" vertex="1" parent="hw-Cy0S7zGGRTdD7gFje-3">
          <mxGeometry x="200" y="120" width="90" height="50" as="geometry" />
        </mxCell>
        <mxCell id="ZxicevR8nljUy3uReArG-25" value="刪除收藏" style="ellipse;whiteSpace=wrap;html=1;" vertex="1" parent="hw-Cy0S7zGGRTdD7gFje-3">
          <mxGeometry x="200" y="290" width="90" height="50" as="geometry" />
        </mxCell>
        <mxCell id="ZxicevR8nljUy3uReArG-36" style="rounded=0;orthogonalLoop=1;jettySize=auto;html=1;exitX=1;exitY=0.5;exitDx=0;exitDy=0;entryX=0;entryY=0.5;entryDx=0;entryDy=0;" edge="1" parent="hw-Cy0S7zGGRTdD7gFje-3" source="ZxicevR8nljUy3uReArG-32" target="ZxicevR8nljUy3uReArG-34">
          <mxGeometry relative="1" as="geometry" />
        </mxCell>
        <mxCell id="ZxicevR8nljUy3uReArG-37" style="rounded=0;orthogonalLoop=1;jettySize=auto;html=1;exitX=1;exitY=0.5;exitDx=0;exitDy=0;entryX=0;entryY=0.5;entryDx=0;entryDy=0;" edge="1" parent="hw-Cy0S7zGGRTdD7gFje-3" source="ZxicevR8nljUy3uReArG-32" target="ZxicevR8nljUy3uReArG-35">
          <mxGeometry relative="1" as="geometry" />
        </mxCell>
        <mxCell id="ZxicevR8nljUy3uReArG-32" value="個人檔案" style="ellipse;whiteSpace=wrap;html=1;" vertex="1" parent="hw-Cy0S7zGGRTdD7gFje-3">
          <mxGeometry x="50" y="460" width="90" height="50" as="geometry" />
        </mxCell>
        <mxCell id="ZxicevR8nljUy3uReArG-34" value="查看個人檔案" style="ellipse;whiteSpace=wrap;html=1;" vertex="1" parent="hw-Cy0S7zGGRTdD7gFje-3">
          <mxGeometry x="200" y="400" width="90" height="50" as="geometry" />
        </mxCell>
        <mxCell id="ZxicevR8nljUy3uReArG-35" value="修改個人檔案" style="ellipse;whiteSpace=wrap;html=1;" vertex="1" parent="hw-Cy0S7zGGRTdD7gFje-3">
          <mxGeometry x="200" y="490" width="90" height="50" as="geometry" />
        </mxCell>
        <mxCell id="ZxicevR8nljUy3uReArG-43" value="&lt;font style=&quot;vertical-align: inherit;&quot;&gt;&lt;font style=&quot;vertical-align: inherit;&quot;&gt;&lt;font style=&quot;vertical-align: inherit;&quot;&gt;&lt;font style=&quot;vertical-align: inherit;&quot;&gt;新增PO文&lt;/font&gt;&lt;/font&gt;&lt;/font&gt;&lt;/font&gt;" style="ellipse;whiteSpace=wrap;html=1;" vertex="1" parent="hw-Cy0S7zGGRTdD7gFje-3">
          <mxGeometry x="200" y="584.5" width="90" height="50" as="geometry" />
        </mxCell>
        <mxCell id="ZxicevR8nljUy3uReArG-48" style="edgeStyle=orthogonalEdgeStyle;rounded=0;orthogonalLoop=1;jettySize=auto;html=1;exitX=1;exitY=0.5;exitDx=0;exitDy=0;entryX=0;entryY=0.5;entryDx=0;entryDy=0;" edge="1" parent="hw-Cy0S7zGGRTdD7gFje-3" source="ZxicevR8nljUy3uReArG-42" target="ZxicevR8nljUy3uReArG-47">
          <mxGeometry relative="1" as="geometry" />
        </mxCell>
        <mxCell id="ZxicevR8nljUy3uReArG-42" value="&lt;font style=&quot;vertical-align: inherit;&quot;&gt;&lt;font style=&quot;vertical-align: inherit;&quot;&gt;&lt;font style=&quot;vertical-align: inherit;&quot;&gt;&lt;font style=&quot;vertical-align: inherit;&quot;&gt;查看PO文&lt;/font&gt;&lt;/font&gt;&lt;/font&gt;&lt;/font&gt;" style="ellipse;whiteSpace=wrap;html=1;" vertex="1" parent="hw-Cy0S7zGGRTdD7gFje-3">
          <mxGeometry x="200" y="680" width="90" height="50" as="geometry" />
        </mxCell>
        <mxCell id="ZxicevR8nljUy3uReArG-41" value="&lt;font style=&quot;vertical-align: inherit;&quot;&gt;&lt;font style=&quot;vertical-align: inherit;&quot;&gt;&lt;font style=&quot;vertical-align: inherit;&quot;&gt;&lt;font style=&quot;vertical-align: inherit;&quot;&gt;刪除PO文&lt;/font&gt;&lt;/font&gt;&lt;/font&gt;&lt;/font&gt;" style="ellipse;whiteSpace=wrap;html=1;" vertex="1" parent="hw-Cy0S7zGGRTdD7gFje-3">
          <mxGeometry x="200" y="770" width="90" height="50" as="geometry" />
        </mxCell>
        <mxCell id="ZxicevR8nljUy3uReArG-47" value="&lt;font style=&quot;vertical-align: inherit;&quot;&gt;&lt;font style=&quot;vertical-align: inherit;&quot;&gt;&lt;font style=&quot;vertical-align: inherit;&quot;&gt;&lt;font style=&quot;vertical-align: inherit;&quot;&gt;修改PO文&lt;/font&gt;&lt;/font&gt;&lt;/font&gt;&lt;/font&gt;" style="ellipse;whiteSpace=wrap;html=1;" vertex="1" parent="hw-Cy0S7zGGRTdD7gFje-3">
          <mxGeometry x="350" y="680" width="90" height="50" as="geometry" />
        </mxCell>
        <mxCell id="hw-Cy0S7zGGRTdD7gFje-30" value="" style="ellipse;html=1;shape=endState;fillColor=#000000;strokeColor=#ff0000;" vertex="1" parent="1">
          <mxGeometry x="131.18" y="1180" width="30" height="30" as="geometry" />
        </mxCell>
        <mxCell id="hw-Cy0S7zGGRTdD7gFje-36" style="edgeStyle=orthogonalEdgeStyle;rounded=0;orthogonalLoop=1;jettySize=auto;html=1;entryX=0.5;entryY=0;entryDx=0;entryDy=0;" edge="1" parent="1" target="hw-Cy0S7zGGRTdD7gFje-33">
          <mxGeometry relative="1" as="geometry">
            <mxPoint x="146.18" y="1270" as="sourcePoint" />
          </mxGeometry>
        </mxCell>
        <mxCell id="hw-Cy0S7zGGRTdD7gFje-37" style="edgeStyle=orthogonalEdgeStyle;rounded=0;orthogonalLoop=1;jettySize=auto;html=1;exitX=0.611;exitY=0.744;exitDx=0;exitDy=0;entryX=0.5;entryY=1;entryDx=0;entryDy=0;exitPerimeter=0;" edge="1" parent="1" source="hw-Cy0S7zGGRTdD7gFje-31" target="hw-Cy0S7zGGRTdD7gFje-30">
          <mxGeometry relative="1" as="geometry">
            <Array as="points">
              <mxPoint x="146.18" y="1272" />
            </Array>
          </mxGeometry>
        </mxCell>
        <mxCell id="hw-Cy0S7zGGRTdD7gFje-31" value="" style="ellipse;html=1;shape=startState;fillColor=#000000;strokeColor=#33001A;" vertex="1" parent="1">
          <mxGeometry x="131.18" y="1250" width="30" height="30" as="geometry" />
        </mxCell>
        <mxCell id="hw-Cy0S7zGGRTdD7gFje-40" style="edgeStyle=orthogonalEdgeStyle;rounded=0;orthogonalLoop=1;jettySize=auto;html=1;exitX=0.5;exitY=1;exitDx=0;exitDy=0;" edge="1" parent="1" source="hw-Cy0S7zGGRTdD7gFje-33" target="hw-Cy0S7zGGRTdD7gFje-38">
          <mxGeometry relative="1" as="geometry" />
        </mxCell>
        <mxCell id="hw-Cy0S7zGGRTdD7gFje-33" value="" style="rounded=1;whiteSpace=wrap;html=1;fillColor=#33001A;" vertex="1" parent="1">
          <mxGeometry x="92.43" y="1320" width="107.5" height="30" as="geometry" />
        </mxCell>
        <mxCell id="hw-Cy0S7zGGRTdD7gFje-44" style="edgeStyle=orthogonalEdgeStyle;rounded=0;orthogonalLoop=1;jettySize=auto;html=1;exitX=0.5;exitY=1;exitDx=0;exitDy=0;entryX=0.5;entryY=0;entryDx=0;entryDy=0;" edge="1" parent="1" source="hw-Cy0S7zGGRTdD7gFje-38" target="hw-Cy0S7zGGRTdD7gFje-55">
          <mxGeometry relative="1" as="geometry">
            <mxPoint x="182.43" y="1460" as="targetPoint" />
          </mxGeometry>
        </mxCell>
        <mxCell id="hw-Cy0S7zGGRTdD7gFje-38" value="登入" style="rounded=1;whiteSpace=wrap;html=1;" vertex="1" parent="1">
          <mxGeometry x="104.93" y="1390" width="82.5" height="40" as="geometry" />
        </mxCell>
        <mxCell id="hw-Cy0S7zGGRTdD7gFje-46" style="edgeStyle=orthogonalEdgeStyle;rounded=0;orthogonalLoop=1;jettySize=auto;html=1;exitX=0.5;exitY=1;exitDx=0;exitDy=0;entryX=0.5;entryY=0;entryDx=0;entryDy=0;" edge="1" parent="1" source="hw-Cy0S7zGGRTdD7gFje-43" target="hw-Cy0S7zGGRTdD7gFje-45">
          <mxGeometry relative="1" as="geometry" />
        </mxCell>
        <mxCell id="hw-Cy0S7zGGRTdD7gFje-43" value="篩選類別搜尋" style="rounded=1;whiteSpace=wrap;html=1;" vertex="1" parent="1">
          <mxGeometry x="104.93" y="1550" width="82.5" height="40" as="geometry" />
        </mxCell>
        <mxCell id="hw-Cy0S7zGGRTdD7gFje-47" style="edgeStyle=orthogonalEdgeStyle;rounded=0;orthogonalLoop=1;jettySize=auto;html=1;exitX=1;exitY=0.5;exitDx=0;exitDy=0;entryX=1;entryY=0.5;entryDx=0;entryDy=0;" edge="1" parent="1" source="hw-Cy0S7zGGRTdD7gFje-52" target="hw-Cy0S7zGGRTdD7gFje-43">
          <mxGeometry relative="1" as="geometry" />
        </mxCell>
        <mxCell id="hw-Cy0S7zGGRTdD7gFje-48" value="重新輸入" style="edgeLabel;html=1;align=center;verticalAlign=middle;resizable=0;points=[];" connectable="0" vertex="1" parent="hw-Cy0S7zGGRTdD7gFje-47">
          <mxGeometry x="-0.0102" y="-2" relative="1" as="geometry">
            <mxPoint x="43" y="42" as="offset" />
          </mxGeometry>
        </mxCell>
        <mxCell id="hw-Cy0S7zGGRTdD7gFje-50" style="edgeStyle=orthogonalEdgeStyle;rounded=0;orthogonalLoop=1;jettySize=auto;html=1;exitX=0.5;exitY=1;exitDx=0;exitDy=0;entryX=0.5;entryY=0;entryDx=0;entryDy=0;" edge="1" parent="1" source="hw-Cy0S7zGGRTdD7gFje-45" target="hw-Cy0S7zGGRTdD7gFje-49">
          <mxGeometry relative="1" as="geometry" />
        </mxCell>
        <mxCell id="hw-Cy0S7zGGRTdD7gFje-51" value="查詢成功" style="edgeLabel;html=1;align=center;verticalAlign=middle;resizable=0;points=[];" connectable="0" vertex="1" parent="hw-Cy0S7zGGRTdD7gFje-50">
          <mxGeometry x="-0.4667" y="1" relative="1" as="geometry">
            <mxPoint as="offset" />
          </mxGeometry>
        </mxCell>
        <mxCell id="hw-Cy0S7zGGRTdD7gFje-53" style="edgeStyle=orthogonalEdgeStyle;rounded=0;orthogonalLoop=1;jettySize=auto;html=1;exitX=1;exitY=0.5;exitDx=0;exitDy=0;entryX=0;entryY=0.5;entryDx=0;entryDy=0;" edge="1" parent="1" source="hw-Cy0S7zGGRTdD7gFje-45" target="hw-Cy0S7zGGRTdD7gFje-52">
          <mxGeometry relative="1" as="geometry" />
        </mxCell>
        <mxCell id="hw-Cy0S7zGGRTdD7gFje-54" value="查無類別" style="edgeLabel;html=1;align=center;verticalAlign=middle;resizable=0;points=[];" connectable="0" vertex="1" parent="hw-Cy0S7zGGRTdD7gFje-53">
          <mxGeometry x="-0.019" y="3" relative="1" as="geometry">
            <mxPoint as="offset" />
          </mxGeometry>
        </mxCell>
        <mxCell id="hw-Cy0S7zGGRTdD7gFje-45" value="" style="rhombus;whiteSpace=wrap;html=1;" vertex="1" parent="1">
          <mxGeometry x="131.81" y="1630" width="28.75" height="30" as="geometry" />
        </mxCell>
        <mxCell id="hw-Cy0S7zGGRTdD7gFje-49" value="顯示符合條件之結果" style="rounded=1;whiteSpace=wrap;html=1;" vertex="1" parent="1">
          <mxGeometry x="104.93" y="1700" width="82.5" height="40" as="geometry" />
        </mxCell>
        <mxCell id="hw-Cy0S7zGGRTdD7gFje-52" value="回傳錯誤訊息" style="rounded=1;whiteSpace=wrap;html=1;" vertex="1" parent="1">
          <mxGeometry x="272.43" y="1625" width="82.5" height="40" as="geometry" />
        </mxCell>
        <mxCell id="hw-Cy0S7zGGRTdD7gFje-58" style="edgeStyle=orthogonalEdgeStyle;rounded=0;orthogonalLoop=1;jettySize=auto;html=1;exitX=0.5;exitY=1;exitDx=0;exitDy=0;entryX=0.5;entryY=0;entryDx=0;entryDy=0;" edge="1" parent="1" source="hw-Cy0S7zGGRTdD7gFje-55" target="hw-Cy0S7zGGRTdD7gFje-43">
          <mxGeometry relative="1" as="geometry" />
        </mxCell>
        <mxCell id="hw-Cy0S7zGGRTdD7gFje-55" value="選擇縣市及區域" style="rounded=1;whiteSpace=wrap;html=1;" vertex="1" parent="1">
          <mxGeometry x="104.93" y="1469" width="82.5" height="40" as="geometry" />
        </mxCell>
        <mxCell id="hw-Cy0S7zGGRTdD7gFje-69" style="edgeStyle=orthogonalEdgeStyle;rounded=0;orthogonalLoop=1;jettySize=auto;html=1;exitX=0;exitY=0.5;exitDx=0;exitDy=0;entryX=0;entryY=0.5;entryDx=0;entryDy=0;" edge="1" parent="1" source="hw-Cy0S7zGGRTdD7gFje-49" target="hw-Cy0S7zGGRTdD7gFje-31">
          <mxGeometry relative="1" as="geometry">
            <mxPoint x="132.43" y="1265" as="targetPoint" />
            <Array as="points">
              <mxPoint x="72" y="1720" />
              <mxPoint x="72" y="1265" />
            </Array>
            <mxPoint x="104.93000000000006" y="1950" as="sourcePoint" />
          </mxGeometry>
        </mxCell>
        <mxCell id="hw-Cy0S7zGGRTdD7gFje-100" value="" style="ellipse;html=1;shape=endState;fillColor=#000000;strokeColor=#ff0000;" vertex="1" parent="1">
          <mxGeometry x="681.18" y="1180" width="30" height="30" as="geometry" />
        </mxCell>
        <mxCell id="hw-Cy0S7zGGRTdD7gFje-101" style="edgeStyle=orthogonalEdgeStyle;rounded=0;orthogonalLoop=1;jettySize=auto;html=1;entryX=0.5;entryY=0;entryDx=0;entryDy=0;" edge="1" parent="1" target="hw-Cy0S7zGGRTdD7gFje-105">
          <mxGeometry relative="1" as="geometry">
            <mxPoint x="696.18" y="1270" as="sourcePoint" />
          </mxGeometry>
        </mxCell>
        <mxCell id="hw-Cy0S7zGGRTdD7gFje-102" style="edgeStyle=orthogonalEdgeStyle;rounded=0;orthogonalLoop=1;jettySize=auto;html=1;exitX=0.611;exitY=0.744;exitDx=0;exitDy=0;entryX=0.5;entryY=1;entryDx=0;entryDy=0;exitPerimeter=0;" edge="1" parent="1" source="hw-Cy0S7zGGRTdD7gFje-103" target="hw-Cy0S7zGGRTdD7gFje-100">
          <mxGeometry relative="1" as="geometry">
            <Array as="points">
              <mxPoint x="696.18" y="1272" />
            </Array>
          </mxGeometry>
        </mxCell>
        <mxCell id="hw-Cy0S7zGGRTdD7gFje-103" value="" style="ellipse;html=1;shape=startState;fillColor=#000000;strokeColor=#33001A;" vertex="1" parent="1">
          <mxGeometry x="681.18" y="1250" width="30" height="30" as="geometry" />
        </mxCell>
        <mxCell id="hw-Cy0S7zGGRTdD7gFje-104" style="edgeStyle=orthogonalEdgeStyle;rounded=0;orthogonalLoop=1;jettySize=auto;html=1;exitX=0.5;exitY=1;exitDx=0;exitDy=0;" edge="1" parent="1" source="hw-Cy0S7zGGRTdD7gFje-105" target="hw-Cy0S7zGGRTdD7gFje-107">
          <mxGeometry relative="1" as="geometry" />
        </mxCell>
        <mxCell id="hw-Cy0S7zGGRTdD7gFje-105" value="" style="rounded=1;whiteSpace=wrap;html=1;fillColor=#33001A;" vertex="1" parent="1">
          <mxGeometry x="642.43" y="1320" width="107.5" height="30" as="geometry" />
        </mxCell>
        <mxCell id="hw-Cy0S7zGGRTdD7gFje-106" style="edgeStyle=orthogonalEdgeStyle;rounded=0;orthogonalLoop=1;jettySize=auto;html=1;exitX=0.5;exitY=1;exitDx=0;exitDy=0;entryX=0.5;entryY=0;entryDx=0;entryDy=0;" edge="1" parent="1" source="hw-Cy0S7zGGRTdD7gFje-107" target="hw-Cy0S7zGGRTdD7gFje-121">
          <mxGeometry relative="1" as="geometry">
            <mxPoint x="732.43" y="1460" as="targetPoint" />
          </mxGeometry>
        </mxCell>
        <mxCell id="hw-Cy0S7zGGRTdD7gFje-107" value="登入" style="rounded=1;whiteSpace=wrap;html=1;" vertex="1" parent="1">
          <mxGeometry x="654.93" y="1390" width="82.5" height="40" as="geometry" />
        </mxCell>
        <mxCell id="hw-Cy0S7zGGRTdD7gFje-108" style="edgeStyle=orthogonalEdgeStyle;rounded=0;orthogonalLoop=1;jettySize=auto;html=1;exitX=0.5;exitY=1;exitDx=0;exitDy=0;entryX=0.5;entryY=0;entryDx=0;entryDy=0;" edge="1" parent="1" source="hw-Cy0S7zGGRTdD7gFje-109" target="hw-Cy0S7zGGRTdD7gFje-116">
          <mxGeometry relative="1" as="geometry" />
        </mxCell>
        <mxCell id="hw-Cy0S7zGGRTdD7gFje-109" value="查看房屋資訊" style="rounded=1;whiteSpace=wrap;html=1;" vertex="1" parent="1">
          <mxGeometry x="654.93" y="1550" width="82.5" height="40" as="geometry" />
        </mxCell>
        <mxCell id="hw-Cy0S7zGGRTdD7gFje-112" style="edgeStyle=orthogonalEdgeStyle;rounded=0;orthogonalLoop=1;jettySize=auto;html=1;exitX=0.5;exitY=1;exitDx=0;exitDy=0;entryX=0.5;entryY=0;entryDx=0;entryDy=0;" edge="1" parent="1" source="hw-Cy0S7zGGRTdD7gFje-116" target="hw-Cy0S7zGGRTdD7gFje-118">
          <mxGeometry relative="1" as="geometry" />
        </mxCell>
        <mxCell id="hw-Cy0S7zGGRTdD7gFje-113" value="加入收藏" style="edgeLabel;html=1;align=center;verticalAlign=middle;resizable=0;points=[];" connectable="0" vertex="1" parent="hw-Cy0S7zGGRTdD7gFje-112">
          <mxGeometry x="-0.4667" y="1" relative="1" as="geometry">
            <mxPoint as="offset" />
          </mxGeometry>
        </mxCell>
        <mxCell id="hw-Cy0S7zGGRTdD7gFje-114" style="edgeStyle=orthogonalEdgeStyle;rounded=0;orthogonalLoop=1;jettySize=auto;html=1;exitX=1;exitY=0.5;exitDx=0;exitDy=0;entryX=1;entryY=0.5;entryDx=0;entryDy=0;" edge="1" parent="1" source="hw-Cy0S7zGGRTdD7gFje-116" target="hw-Cy0S7zGGRTdD7gFje-118">
          <mxGeometry relative="1" as="geometry">
            <mxPoint x="822.43" y="1645" as="targetPoint" />
            <Array as="points">
              <mxPoint x="752.43" y="1645" />
              <mxPoint x="752.43" y="1720" />
            </Array>
          </mxGeometry>
        </mxCell>
        <mxCell id="hw-Cy0S7zGGRTdD7gFje-115" value="不收藏" style="edgeLabel;html=1;align=center;verticalAlign=middle;resizable=0;points=[];" connectable="0" vertex="1" parent="hw-Cy0S7zGGRTdD7gFje-114">
          <mxGeometry x="-0.019" y="3" relative="1" as="geometry">
            <mxPoint as="offset" />
          </mxGeometry>
        </mxCell>
        <mxCell id="hw-Cy0S7zGGRTdD7gFje-116" value="" style="rhombus;whiteSpace=wrap;html=1;" vertex="1" parent="1">
          <mxGeometry x="681.81" y="1630" width="28.75" height="30" as="geometry" />
        </mxCell>
        <mxCell id="hw-Cy0S7zGGRTdD7gFje-118" value="查看我的收藏" style="rounded=1;whiteSpace=wrap;html=1;" vertex="1" parent="1">
          <mxGeometry x="654.93" y="1700" width="82.5" height="40" as="geometry" />
        </mxCell>
        <mxCell id="hw-Cy0S7zGGRTdD7gFje-120" style="edgeStyle=orthogonalEdgeStyle;rounded=0;orthogonalLoop=1;jettySize=auto;html=1;exitX=0.5;exitY=1;exitDx=0;exitDy=0;entryX=0.5;entryY=0;entryDx=0;entryDy=0;" edge="1" parent="1" source="hw-Cy0S7zGGRTdD7gFje-121" target="hw-Cy0S7zGGRTdD7gFje-109">
          <mxGeometry relative="1" as="geometry" />
        </mxCell>
        <mxCell id="hw-Cy0S7zGGRTdD7gFje-121" value="選擇房屋" style="rounded=1;whiteSpace=wrap;html=1;" vertex="1" parent="1">
          <mxGeometry x="654.93" y="1469" width="82.5" height="40" as="geometry" />
        </mxCell>
        <mxCell id="hw-Cy0S7zGGRTdD7gFje-129" style="edgeStyle=orthogonalEdgeStyle;rounded=0;orthogonalLoop=1;jettySize=auto;html=1;exitX=0;exitY=0.25;exitDx=0;exitDy=0;entryX=0;entryY=0.5;entryDx=0;entryDy=0;" edge="1" parent="1" source="hw-Cy0S7zGGRTdD7gFje-118" target="hw-Cy0S7zGGRTdD7gFje-103">
          <mxGeometry relative="1" as="geometry">
            <mxPoint x="682.43" y="1265" as="targetPoint" />
            <Array as="points">
              <mxPoint x="655.43" y="1720" />
              <mxPoint x="622.43" y="1720" />
              <mxPoint x="622.43" y="1265" />
            </Array>
            <mxPoint x="654.93" y="1950" as="sourcePoint" />
          </mxGeometry>
        </mxCell>
        <mxCell id="hw-Cy0S7zGGRTdD7gFje-138" value="" style="ellipse;html=1;shape=endState;fillColor=#000000;strokeColor=#ff0000;" vertex="1" parent="1">
          <mxGeometry x="702.1199999999999" y="3395" width="30" height="30" as="geometry" />
        </mxCell>
        <mxCell id="hw-Cy0S7zGGRTdD7gFje-139" style="edgeStyle=orthogonalEdgeStyle;rounded=0;orthogonalLoop=1;jettySize=auto;html=1;entryX=0.5;entryY=0;entryDx=0;entryDy=0;" edge="1" parent="1" target="hw-Cy0S7zGGRTdD7gFje-143">
          <mxGeometry relative="1" as="geometry">
            <mxPoint x="717.1199999999999" y="3485" as="sourcePoint" />
          </mxGeometry>
        </mxCell>
        <mxCell id="hw-Cy0S7zGGRTdD7gFje-140" style="edgeStyle=orthogonalEdgeStyle;rounded=0;orthogonalLoop=1;jettySize=auto;html=1;exitX=0.611;exitY=0.744;exitDx=0;exitDy=0;entryX=0.5;entryY=1;entryDx=0;entryDy=0;exitPerimeter=0;" edge="1" parent="1" source="hw-Cy0S7zGGRTdD7gFje-141" target="hw-Cy0S7zGGRTdD7gFje-138">
          <mxGeometry relative="1" as="geometry">
            <Array as="points">
              <mxPoint x="717.1199999999999" y="3487" />
            </Array>
          </mxGeometry>
        </mxCell>
        <mxCell id="hw-Cy0S7zGGRTdD7gFje-141" value="" style="ellipse;html=1;shape=startState;fillColor=#000000;strokeColor=#33001A;" vertex="1" parent="1">
          <mxGeometry x="702.1199999999999" y="3465" width="30" height="30" as="geometry" />
        </mxCell>
        <mxCell id="hw-Cy0S7zGGRTdD7gFje-142" style="edgeStyle=orthogonalEdgeStyle;rounded=0;orthogonalLoop=1;jettySize=auto;html=1;exitX=0.5;exitY=1;exitDx=0;exitDy=0;" edge="1" parent="1" source="hw-Cy0S7zGGRTdD7gFje-143" target="hw-Cy0S7zGGRTdD7gFje-145">
          <mxGeometry relative="1" as="geometry" />
        </mxCell>
        <mxCell id="hw-Cy0S7zGGRTdD7gFje-143" value="" style="rounded=1;whiteSpace=wrap;html=1;fillColor=#33001A;" vertex="1" parent="1">
          <mxGeometry x="663.3699999999999" y="3535" width="107.5" height="30" as="geometry" />
        </mxCell>
        <mxCell id="hw-Cy0S7zGGRTdD7gFje-144" style="edgeStyle=orthogonalEdgeStyle;rounded=0;orthogonalLoop=1;jettySize=auto;html=1;exitX=0.5;exitY=1;exitDx=0;exitDy=0;entryX=0.5;entryY=0;entryDx=0;entryDy=0;" edge="1" parent="1" source="hw-Cy0S7zGGRTdD7gFje-145" target="hw-Cy0S7zGGRTdD7gFje-155">
          <mxGeometry relative="1" as="geometry">
            <mxPoint x="753.3699999999999" y="3675" as="targetPoint" />
          </mxGeometry>
        </mxCell>
        <mxCell id="hw-Cy0S7zGGRTdD7gFje-145" value="登入" style="rounded=1;whiteSpace=wrap;html=1;" vertex="1" parent="1">
          <mxGeometry x="675.8699999999999" y="3605" width="82.5" height="40" as="geometry" />
        </mxCell>
        <mxCell id="hw-Cy0S7zGGRTdD7gFje-146" style="edgeStyle=orthogonalEdgeStyle;rounded=0;orthogonalLoop=1;jettySize=auto;html=1;exitX=0.5;exitY=1;exitDx=0;exitDy=0;entryX=0.5;entryY=0;entryDx=0;entryDy=0;" edge="1" parent="1" source="hw-Cy0S7zGGRTdD7gFje-147" target="hw-Cy0S7zGGRTdD7gFje-157">
          <mxGeometry relative="1" as="geometry" />
        </mxCell>
        <mxCell id="hw-Cy0S7zGGRTdD7gFje-147" value="顯示個人檔案頁面" style="rounded=1;whiteSpace=wrap;html=1;" vertex="1" parent="1">
          <mxGeometry x="675.8699999999999" y="3765" width="82.5" height="40" as="geometry" />
        </mxCell>
        <mxCell id="hw-Cy0S7zGGRTdD7gFje-148" style="edgeStyle=orthogonalEdgeStyle;rounded=0;orthogonalLoop=1;jettySize=auto;html=1;exitX=0.5;exitY=1;exitDx=0;exitDy=0;entryX=0.5;entryY=0;entryDx=0;entryDy=0;" edge="1" parent="1" source="hw-Cy0S7zGGRTdD7gFje-152" target="hw-Cy0S7zGGRTdD7gFje-153">
          <mxGeometry relative="1" as="geometry">
            <mxPoint x="716.6199999999999" y="3995" as="targetPoint" />
          </mxGeometry>
        </mxCell>
        <mxCell id="hw-Cy0S7zGGRTdD7gFje-149" value="修改" style="edgeLabel;html=1;align=center;verticalAlign=middle;resizable=0;points=[];" connectable="0" vertex="1" parent="hw-Cy0S7zGGRTdD7gFje-148">
          <mxGeometry x="-0.4667" y="1" relative="1" as="geometry">
            <mxPoint as="offset" />
          </mxGeometry>
        </mxCell>
        <mxCell id="hw-Cy0S7zGGRTdD7gFje-161" style="edgeStyle=orthogonalEdgeStyle;rounded=0;orthogonalLoop=1;jettySize=auto;html=1;exitX=1;exitY=0.5;exitDx=0;exitDy=0;entryX=1;entryY=0.5;entryDx=0;entryDy=0;" edge="1" parent="1" source="hw-Cy0S7zGGRTdD7gFje-152" target="hw-Cy0S7zGGRTdD7gFje-153">
          <mxGeometry relative="1" as="geometry" />
        </mxCell>
        <mxCell id="hw-Cy0S7zGGRTdD7gFje-162" value="不修改" style="edgeLabel;html=1;align=center;verticalAlign=middle;resizable=0;points=[];" connectable="0" vertex="1" parent="hw-Cy0S7zGGRTdD7gFje-161">
          <mxGeometry x="0.0946" y="-1" relative="1" as="geometry">
            <mxPoint y="-1" as="offset" />
          </mxGeometry>
        </mxCell>
        <mxCell id="hw-Cy0S7zGGRTdD7gFje-152" value="" style="rhombus;whiteSpace=wrap;html=1;" vertex="1" parent="1">
          <mxGeometry x="702.27" y="3925" width="28.75" height="30" as="geometry" />
        </mxCell>
        <mxCell id="hw-Cy0S7zGGRTdD7gFje-153" value="顯示個人檔案" style="rounded=1;whiteSpace=wrap;html=1;" vertex="1" parent="1">
          <mxGeometry x="675.8699999999999" y="3995" width="82.5" height="40" as="geometry" />
        </mxCell>
        <mxCell id="hw-Cy0S7zGGRTdD7gFje-154" style="edgeStyle=orthogonalEdgeStyle;rounded=0;orthogonalLoop=1;jettySize=auto;html=1;exitX=0.5;exitY=1;exitDx=0;exitDy=0;entryX=0.5;entryY=0;entryDx=0;entryDy=0;" edge="1" parent="1" source="hw-Cy0S7zGGRTdD7gFje-155" target="hw-Cy0S7zGGRTdD7gFje-147">
          <mxGeometry relative="1" as="geometry" />
        </mxCell>
        <mxCell id="hw-Cy0S7zGGRTdD7gFje-155" value="點選查看個人檔案" style="rounded=1;whiteSpace=wrap;html=1;" vertex="1" parent="1">
          <mxGeometry x="675.8699999999999" y="3684" width="82.5" height="40" as="geometry" />
        </mxCell>
        <mxCell id="hw-Cy0S7zGGRTdD7gFje-156" style="edgeStyle=orthogonalEdgeStyle;rounded=0;orthogonalLoop=1;jettySize=auto;html=1;exitX=0;exitY=0.5;exitDx=0;exitDy=0;" edge="1" parent="1" source="hw-Cy0S7zGGRTdD7gFje-153">
          <mxGeometry relative="1" as="geometry">
            <mxPoint x="704.6199999999999" y="3480" as="targetPoint" />
            <Array as="points">
              <mxPoint x="617.6199999999999" y="4015" />
              <mxPoint x="617.6199999999999" y="3480" />
            </Array>
            <mxPoint x="634.6599999999999" y="4130" as="sourcePoint" />
          </mxGeometry>
        </mxCell>
        <mxCell id="hw-Cy0S7zGGRTdD7gFje-160" style="edgeStyle=orthogonalEdgeStyle;rounded=0;orthogonalLoop=1;jettySize=auto;html=1;exitX=0.5;exitY=1;exitDx=0;exitDy=0;entryX=0.5;entryY=0;entryDx=0;entryDy=0;" edge="1" parent="1" source="hw-Cy0S7zGGRTdD7gFje-157" target="hw-Cy0S7zGGRTdD7gFje-152">
          <mxGeometry relative="1" as="geometry" />
        </mxCell>
        <mxCell id="hw-Cy0S7zGGRTdD7gFje-157" value="修改個人資料" style="rounded=1;whiteSpace=wrap;html=1;" vertex="1" parent="1">
          <mxGeometry x="675.8699999999999" y="3845" width="82.5" height="40" as="geometry" />
        </mxCell>
        <mxCell id="hw-Cy0S7zGGRTdD7gFje-164" value="" style="ellipse;html=1;shape=endState;fillColor=#000000;strokeColor=#ff0000;" vertex="1" parent="1">
          <mxGeometry x="176.88" y="2280" width="30" height="30" as="geometry" />
        </mxCell>
        <mxCell id="hw-Cy0S7zGGRTdD7gFje-165" style="edgeStyle=orthogonalEdgeStyle;rounded=0;orthogonalLoop=1;jettySize=auto;html=1;entryX=0.5;entryY=0;entryDx=0;entryDy=0;" edge="1" parent="1" target="hw-Cy0S7zGGRTdD7gFje-169">
          <mxGeometry relative="1" as="geometry">
            <mxPoint x="191.88" y="2370" as="sourcePoint" />
          </mxGeometry>
        </mxCell>
        <mxCell id="hw-Cy0S7zGGRTdD7gFje-166" style="edgeStyle=orthogonalEdgeStyle;rounded=0;orthogonalLoop=1;jettySize=auto;html=1;exitX=0.611;exitY=0.744;exitDx=0;exitDy=0;entryX=0.5;entryY=1;entryDx=0;entryDy=0;exitPerimeter=0;" edge="1" parent="1" source="hw-Cy0S7zGGRTdD7gFje-167" target="hw-Cy0S7zGGRTdD7gFje-164">
          <mxGeometry relative="1" as="geometry">
            <Array as="points">
              <mxPoint x="191.88" y="2372" />
            </Array>
          </mxGeometry>
        </mxCell>
        <mxCell id="hw-Cy0S7zGGRTdD7gFje-167" value="" style="ellipse;html=1;shape=startState;fillColor=#000000;strokeColor=#33001A;" vertex="1" parent="1">
          <mxGeometry x="176.88" y="2350" width="30" height="30" as="geometry" />
        </mxCell>
        <mxCell id="hw-Cy0S7zGGRTdD7gFje-168" style="edgeStyle=orthogonalEdgeStyle;rounded=0;orthogonalLoop=1;jettySize=auto;html=1;exitX=0.5;exitY=1;exitDx=0;exitDy=0;" edge="1" parent="1" source="hw-Cy0S7zGGRTdD7gFje-169" target="hw-Cy0S7zGGRTdD7gFje-171">
          <mxGeometry relative="1" as="geometry" />
        </mxCell>
        <mxCell id="hw-Cy0S7zGGRTdD7gFje-169" value="" style="rounded=1;whiteSpace=wrap;html=1;fillColor=#33001A;" vertex="1" parent="1">
          <mxGeometry x="138.13" y="2420" width="107.5" height="30" as="geometry" />
        </mxCell>
        <mxCell id="hw-Cy0S7zGGRTdD7gFje-170" style="edgeStyle=orthogonalEdgeStyle;rounded=0;orthogonalLoop=1;jettySize=auto;html=1;exitX=0.5;exitY=1;exitDx=0;exitDy=0;entryX=0.5;entryY=0;entryDx=0;entryDy=0;" edge="1" parent="1" source="hw-Cy0S7zGGRTdD7gFje-171" target="hw-Cy0S7zGGRTdD7gFje-181">
          <mxGeometry relative="1" as="geometry">
            <mxPoint x="228.13" y="2560" as="targetPoint" />
          </mxGeometry>
        </mxCell>
        <mxCell id="hw-Cy0S7zGGRTdD7gFje-171" value="登入" style="rounded=1;whiteSpace=wrap;html=1;" vertex="1" parent="1">
          <mxGeometry x="150.63" y="2490" width="82.5" height="40" as="geometry" />
        </mxCell>
        <mxCell id="hw-Cy0S7zGGRTdD7gFje-172" style="edgeStyle=orthogonalEdgeStyle;rounded=0;orthogonalLoop=1;jettySize=auto;html=1;exitX=0.5;exitY=1;exitDx=0;exitDy=0;entryX=0.5;entryY=0;entryDx=0;entryDy=0;" edge="1" parent="1" source="hw-Cy0S7zGGRTdD7gFje-173" target="hw-Cy0S7zGGRTdD7gFje-184">
          <mxGeometry relative="1" as="geometry" />
        </mxCell>
        <mxCell id="hw-Cy0S7zGGRTdD7gFje-173" value="確認送出" style="rounded=1;whiteSpace=wrap;html=1;" vertex="1" parent="1">
          <mxGeometry x="150.63" y="2650" width="82.5" height="40" as="geometry" />
        </mxCell>
        <mxCell id="hw-Cy0S7zGGRTdD7gFje-174" style="edgeStyle=orthogonalEdgeStyle;rounded=0;orthogonalLoop=1;jettySize=auto;html=1;exitX=0.5;exitY=1;exitDx=0;exitDy=0;entryX=0.5;entryY=0;entryDx=0;entryDy=0;" edge="1" parent="1" source="hw-Cy0S7zGGRTdD7gFje-178" target="hw-Cy0S7zGGRTdD7gFje-179">
          <mxGeometry relative="1" as="geometry">
            <mxPoint x="191.38" y="2880" as="targetPoint" />
          </mxGeometry>
        </mxCell>
        <mxCell id="hw-Cy0S7zGGRTdD7gFje-175" value="通過" style="edgeLabel;html=1;align=center;verticalAlign=middle;resizable=0;points=[];" connectable="0" vertex="1" parent="hw-Cy0S7zGGRTdD7gFje-174">
          <mxGeometry x="-0.4667" y="1" relative="1" as="geometry">
            <mxPoint as="offset" />
          </mxGeometry>
        </mxCell>
        <mxCell id="hw-Cy0S7zGGRTdD7gFje-176" style="edgeStyle=orthogonalEdgeStyle;rounded=0;orthogonalLoop=1;jettySize=auto;html=1;exitX=1;exitY=0.5;exitDx=0;exitDy=0;entryX=1;entryY=0.5;entryDx=0;entryDy=0;" edge="1" parent="1" source="hw-Cy0S7zGGRTdD7gFje-178" target="hw-Cy0S7zGGRTdD7gFje-181">
          <mxGeometry relative="1" as="geometry" />
        </mxCell>
        <mxCell id="hw-Cy0S7zGGRTdD7gFje-177" value="未通過" style="edgeLabel;html=1;align=center;verticalAlign=middle;resizable=0;points=[];" connectable="0" vertex="1" parent="hw-Cy0S7zGGRTdD7gFje-176">
          <mxGeometry x="0.0946" y="-1" relative="1" as="geometry">
            <mxPoint y="-1" as="offset" />
          </mxGeometry>
        </mxCell>
        <mxCell id="hw-Cy0S7zGGRTdD7gFje-178" value="" style="rhombus;whiteSpace=wrap;html=1;" vertex="1" parent="1">
          <mxGeometry x="177.0300000000001" y="2810" width="28.75" height="30" as="geometry" />
        </mxCell>
        <mxCell id="hw-Cy0S7zGGRTdD7gFje-179" value="查看結果" style="rounded=1;whiteSpace=wrap;html=1;" vertex="1" parent="1">
          <mxGeometry x="150.63" y="2880" width="82.5" height="40" as="geometry" />
        </mxCell>
        <mxCell id="hw-Cy0S7zGGRTdD7gFje-180" style="edgeStyle=orthogonalEdgeStyle;rounded=0;orthogonalLoop=1;jettySize=auto;html=1;exitX=0.5;exitY=1;exitDx=0;exitDy=0;entryX=0.5;entryY=0;entryDx=0;entryDy=0;" edge="1" parent="1" source="hw-Cy0S7zGGRTdD7gFje-181" target="hw-Cy0S7zGGRTdD7gFje-173">
          <mxGeometry relative="1" as="geometry" />
        </mxCell>
        <mxCell id="hw-Cy0S7zGGRTdD7gFje-181" value="填寫出租房屋相關資料" style="rounded=1;whiteSpace=wrap;html=1;" vertex="1" parent="1">
          <mxGeometry x="150.63" y="2569" width="82.5" height="40" as="geometry" />
        </mxCell>
        <mxCell id="hw-Cy0S7zGGRTdD7gFje-182" style="edgeStyle=orthogonalEdgeStyle;rounded=0;orthogonalLoop=1;jettySize=auto;html=1;exitX=0;exitY=0.5;exitDx=0;exitDy=0;" edge="1" parent="1" source="hw-Cy0S7zGGRTdD7gFje-179">
          <mxGeometry relative="1" as="geometry">
            <mxPoint x="179.38" y="2365" as="targetPoint" />
            <Array as="points">
              <mxPoint x="92.37999999999997" y="2900" />
              <mxPoint x="92.37999999999997" y="2365" />
            </Array>
            <mxPoint x="109.42000000000004" y="3015" as="sourcePoint" />
          </mxGeometry>
        </mxCell>
        <mxCell id="hw-Cy0S7zGGRTdD7gFje-183" style="edgeStyle=orthogonalEdgeStyle;rounded=0;orthogonalLoop=1;jettySize=auto;html=1;exitX=0.5;exitY=1;exitDx=0;exitDy=0;entryX=0.5;entryY=0;entryDx=0;entryDy=0;" edge="1" parent="1" source="hw-Cy0S7zGGRTdD7gFje-184" target="hw-Cy0S7zGGRTdD7gFje-178">
          <mxGeometry relative="1" as="geometry" />
        </mxCell>
        <mxCell id="hw-Cy0S7zGGRTdD7gFje-184" value="待管理員審核通過" style="rounded=1;whiteSpace=wrap;html=1;" vertex="1" parent="1">
          <mxGeometry x="150.63" y="2730" width="82.5" height="40" as="geometry" />
        </mxCell>
        <mxCell id="hw-Cy0S7zGGRTdD7gFje-185" value="" style="ellipse;html=1;shape=endState;fillColor=#000000;strokeColor=#ff0000;" vertex="1" parent="1">
          <mxGeometry x="1001.9" y="3465" width="30" height="30" as="geometry" />
        </mxCell>
        <mxCell id="hw-Cy0S7zGGRTdD7gFje-186" style="edgeStyle=orthogonalEdgeStyle;rounded=0;orthogonalLoop=1;jettySize=auto;html=1;entryX=0.5;entryY=0;entryDx=0;entryDy=0;" edge="1" parent="1" target="hw-Cy0S7zGGRTdD7gFje-190">
          <mxGeometry relative="1" as="geometry">
            <mxPoint x="1016.9" y="3555" as="sourcePoint" />
          </mxGeometry>
        </mxCell>
        <mxCell id="hw-Cy0S7zGGRTdD7gFje-187" style="edgeStyle=orthogonalEdgeStyle;rounded=0;orthogonalLoop=1;jettySize=auto;html=1;exitX=0.611;exitY=0.744;exitDx=0;exitDy=0;entryX=0.5;entryY=1;entryDx=0;entryDy=0;exitPerimeter=0;" edge="1" parent="1" source="hw-Cy0S7zGGRTdD7gFje-188" target="hw-Cy0S7zGGRTdD7gFje-185">
          <mxGeometry relative="1" as="geometry">
            <Array as="points">
              <mxPoint x="1016.9" y="3557" />
            </Array>
          </mxGeometry>
        </mxCell>
        <mxCell id="hw-Cy0S7zGGRTdD7gFje-188" value="" style="ellipse;html=1;shape=startState;fillColor=#000000;strokeColor=#33001A;" vertex="1" parent="1">
          <mxGeometry x="1001.9" y="3535" width="30" height="30" as="geometry" />
        </mxCell>
        <mxCell id="hw-Cy0S7zGGRTdD7gFje-189" style="edgeStyle=orthogonalEdgeStyle;rounded=0;orthogonalLoop=1;jettySize=auto;html=1;exitX=0.5;exitY=1;exitDx=0;exitDy=0;" edge="1" parent="1" source="hw-Cy0S7zGGRTdD7gFje-190">
          <mxGeometry relative="1" as="geometry">
            <mxPoint x="1016.9147058823531" y="3675" as="targetPoint" />
          </mxGeometry>
        </mxCell>
        <mxCell id="hw-Cy0S7zGGRTdD7gFje-190" value="" style="rounded=1;whiteSpace=wrap;html=1;fillColor=#33001A;" vertex="1" parent="1">
          <mxGeometry x="963.15" y="3605" width="107.5" height="30" as="geometry" />
        </mxCell>
        <mxCell id="hw-Cy0S7zGGRTdD7gFje-193" style="edgeStyle=orthogonalEdgeStyle;rounded=0;orthogonalLoop=1;jettySize=auto;html=1;exitX=0.5;exitY=1;exitDx=0;exitDy=0;entryX=0.5;entryY=0;entryDx=0;entryDy=0;" edge="1" parent="1" source="hw-Cy0S7zGGRTdD7gFje-194">
          <mxGeometry relative="1" as="geometry">
            <mxPoint x="1016.9050000000001" y="3836" as="targetPoint" />
          </mxGeometry>
        </mxCell>
        <mxCell id="hw-Cy0S7zGGRTdD7gFje-194" value="確認登出" style="rounded=1;whiteSpace=wrap;html=1;" vertex="1" parent="1">
          <mxGeometry x="975.65" y="3756" width="82.5" height="40" as="geometry" />
        </mxCell>
        <mxCell id="hw-Cy0S7zGGRTdD7gFje-200" value="登出成功" style="rounded=1;whiteSpace=wrap;html=1;" vertex="1" parent="1">
          <mxGeometry x="975.65" y="3915" width="82.5" height="40" as="geometry" />
        </mxCell>
        <mxCell id="hw-Cy0S7zGGRTdD7gFje-201" style="edgeStyle=orthogonalEdgeStyle;rounded=0;orthogonalLoop=1;jettySize=auto;html=1;exitX=0.5;exitY=1;exitDx=0;exitDy=0;entryX=0.5;entryY=0;entryDx=0;entryDy=0;" edge="1" parent="1" source="hw-Cy0S7zGGRTdD7gFje-202" target="hw-Cy0S7zGGRTdD7gFje-194">
          <mxGeometry relative="1" as="geometry" />
        </mxCell>
        <mxCell id="hw-Cy0S7zGGRTdD7gFje-202" value="點選登出" style="rounded=1;whiteSpace=wrap;html=1;" vertex="1" parent="1">
          <mxGeometry x="975.65" y="3675" width="82.5" height="40" as="geometry" />
        </mxCell>
        <mxCell id="hw-Cy0S7zGGRTdD7gFje-203" style="edgeStyle=orthogonalEdgeStyle;rounded=0;orthogonalLoop=1;jettySize=auto;html=1;exitX=0;exitY=0.5;exitDx=0;exitDy=0;entryX=0;entryY=0.5;entryDx=0;entryDy=0;" edge="1" parent="1" source="hw-Cy0S7zGGRTdD7gFje-200" target="hw-Cy0S7zGGRTdD7gFje-188">
          <mxGeometry relative="1" as="geometry">
            <mxPoint x="1003.15" y="3550" as="targetPoint" />
            <Array as="points">
              <mxPoint x="943.15" y="3935" />
              <mxPoint x="943.15" y="3550" />
            </Array>
            <mxPoint x="975.65" y="4235" as="sourcePoint" />
          </mxGeometry>
        </mxCell>
        <mxCell id="hw-Cy0S7zGGRTdD7gFje-205" style="edgeStyle=orthogonalEdgeStyle;rounded=0;orthogonalLoop=1;jettySize=auto;html=1;exitX=0.5;exitY=1;exitDx=0;exitDy=0;entryX=0.5;entryY=0;entryDx=0;entryDy=0;" edge="1" parent="1" source="hw-Cy0S7zGGRTdD7gFje-204" target="hw-Cy0S7zGGRTdD7gFje-200">
          <mxGeometry relative="1" as="geometry" />
        </mxCell>
        <mxCell id="hw-Cy0S7zGGRTdD7gFje-204" value="清除token" style="rounded=1;whiteSpace=wrap;html=1;" vertex="1" parent="1">
          <mxGeometry x="975.65" y="3836" width="82.5" height="40" as="geometry" />
        </mxCell>
        <mxCell id="hw-Cy0S7zGGRTdD7gFje-206" value="" style="ellipse;html=1;shape=endState;fillColor=#000000;strokeColor=#ff0000;" vertex="1" parent="1">
          <mxGeometry x="714.71" y="2280" width="30" height="30" as="geometry" />
        </mxCell>
        <mxCell id="hw-Cy0S7zGGRTdD7gFje-207" style="edgeStyle=orthogonalEdgeStyle;rounded=0;orthogonalLoop=1;jettySize=auto;html=1;entryX=0.5;entryY=0;entryDx=0;entryDy=0;" edge="1" parent="1" target="hw-Cy0S7zGGRTdD7gFje-211">
          <mxGeometry relative="1" as="geometry">
            <mxPoint x="729.71" y="2370" as="sourcePoint" />
          </mxGeometry>
        </mxCell>
        <mxCell id="hw-Cy0S7zGGRTdD7gFje-208" style="edgeStyle=orthogonalEdgeStyle;rounded=0;orthogonalLoop=1;jettySize=auto;html=1;exitX=0.611;exitY=0.744;exitDx=0;exitDy=0;entryX=0.5;entryY=1;entryDx=0;entryDy=0;exitPerimeter=0;" edge="1" parent="1" source="hw-Cy0S7zGGRTdD7gFje-209" target="hw-Cy0S7zGGRTdD7gFje-206">
          <mxGeometry relative="1" as="geometry">
            <Array as="points">
              <mxPoint x="729.71" y="2372" />
            </Array>
          </mxGeometry>
        </mxCell>
        <mxCell id="hw-Cy0S7zGGRTdD7gFje-209" value="" style="ellipse;html=1;shape=startState;fillColor=#000000;strokeColor=#33001A;" vertex="1" parent="1">
          <mxGeometry x="714.71" y="2350" width="30" height="30" as="geometry" />
        </mxCell>
        <mxCell id="hw-Cy0S7zGGRTdD7gFje-210" style="edgeStyle=orthogonalEdgeStyle;rounded=0;orthogonalLoop=1;jettySize=auto;html=1;exitX=0.5;exitY=1;exitDx=0;exitDy=0;" edge="1" parent="1" source="hw-Cy0S7zGGRTdD7gFje-211" target="hw-Cy0S7zGGRTdD7gFje-213">
          <mxGeometry relative="1" as="geometry" />
        </mxCell>
        <mxCell id="hw-Cy0S7zGGRTdD7gFje-211" value="" style="rounded=1;whiteSpace=wrap;html=1;fillColor=#33001A;" vertex="1" parent="1">
          <mxGeometry x="675.96" y="2420" width="107.5" height="30" as="geometry" />
        </mxCell>
        <mxCell id="hw-Cy0S7zGGRTdD7gFje-212" style="edgeStyle=orthogonalEdgeStyle;rounded=0;orthogonalLoop=1;jettySize=auto;html=1;exitX=0.5;exitY=1;exitDx=0;exitDy=0;entryX=0.5;entryY=0;entryDx=0;entryDy=0;" edge="1" parent="1" source="hw-Cy0S7zGGRTdD7gFje-213" target="hw-Cy0S7zGGRTdD7gFje-223">
          <mxGeometry relative="1" as="geometry">
            <mxPoint x="765.96" y="2560" as="targetPoint" />
          </mxGeometry>
        </mxCell>
        <mxCell id="hw-Cy0S7zGGRTdD7gFje-213" value="登入" style="rounded=1;whiteSpace=wrap;html=1;" vertex="1" parent="1">
          <mxGeometry x="688.46" y="2490" width="82.5" height="40" as="geometry" />
        </mxCell>
        <mxCell id="hw-Cy0S7zGGRTdD7gFje-214" style="edgeStyle=orthogonalEdgeStyle;rounded=0;orthogonalLoop=1;jettySize=auto;html=1;exitX=0.5;exitY=1;exitDx=0;exitDy=0;entryX=0.5;entryY=0;entryDx=0;entryDy=0;" edge="1" parent="1" source="hw-Cy0S7zGGRTdD7gFje-215" target="hw-Cy0S7zGGRTdD7gFje-227">
          <mxGeometry relative="1" as="geometry">
            <mxPoint x="729.97" y="2720" as="targetPoint" />
          </mxGeometry>
        </mxCell>
        <mxCell id="hw-Cy0S7zGGRTdD7gFje-215" value="修改PO文" style="rounded=1;whiteSpace=wrap;html=1;" vertex="1" parent="1">
          <mxGeometry x="688.46" y="2650" width="82.5" height="40" as="geometry" />
        </mxCell>
        <mxCell id="hw-Cy0S7zGGRTdD7gFje-216" style="edgeStyle=orthogonalEdgeStyle;rounded=0;orthogonalLoop=1;jettySize=auto;html=1;exitX=0.5;exitY=1;exitDx=0;exitDy=0;entryX=0.5;entryY=0;entryDx=0;entryDy=0;" edge="1" parent="1" source="hw-Cy0S7zGGRTdD7gFje-220" target="hw-Cy0S7zGGRTdD7gFje-221">
          <mxGeometry relative="1" as="geometry">
            <mxPoint x="729.21" y="2922.4" as="targetPoint" />
          </mxGeometry>
        </mxCell>
        <mxCell id="hw-Cy0S7zGGRTdD7gFje-217" value="通過" style="edgeLabel;html=1;align=center;verticalAlign=middle;resizable=0;points=[];" connectable="0" vertex="1" parent="hw-Cy0S7zGGRTdD7gFje-216">
          <mxGeometry x="-0.4667" y="1" relative="1" as="geometry">
            <mxPoint as="offset" />
          </mxGeometry>
        </mxCell>
        <mxCell id="hw-Cy0S7zGGRTdD7gFje-218" style="edgeStyle=orthogonalEdgeStyle;rounded=0;orthogonalLoop=1;jettySize=auto;html=1;exitX=1;exitY=0.5;exitDx=0;exitDy=0;entryX=1;entryY=0.5;entryDx=0;entryDy=0;" edge="1" parent="1" source="hw-Cy0S7zGGRTdD7gFje-220" target="hw-Cy0S7zGGRTdD7gFje-223">
          <mxGeometry relative="1" as="geometry" />
        </mxCell>
        <mxCell id="hw-Cy0S7zGGRTdD7gFje-219" value="未通過" style="edgeLabel;html=1;align=center;verticalAlign=middle;resizable=0;points=[];" connectable="0" vertex="1" parent="hw-Cy0S7zGGRTdD7gFje-218">
          <mxGeometry x="0.0946" y="-1" relative="1" as="geometry">
            <mxPoint y="-1" as="offset" />
          </mxGeometry>
        </mxCell>
        <mxCell id="hw-Cy0S7zGGRTdD7gFje-220" value="" style="rhombus;whiteSpace=wrap;html=1;" vertex="1" parent="1">
          <mxGeometry x="714.71" y="2900" width="28.75" height="30" as="geometry" />
        </mxCell>
        <mxCell id="hw-Cy0S7zGGRTdD7gFje-221" value="查看結果" style="rounded=1;whiteSpace=wrap;html=1;" vertex="1" parent="1">
          <mxGeometry x="687.83" y="2980" width="82.5" height="40" as="geometry" />
        </mxCell>
        <mxCell id="hw-Cy0S7zGGRTdD7gFje-222" style="edgeStyle=orthogonalEdgeStyle;rounded=0;orthogonalLoop=1;jettySize=auto;html=1;exitX=0.5;exitY=1;exitDx=0;exitDy=0;entryX=0.5;entryY=0;entryDx=0;entryDy=0;" edge="1" parent="1" source="hw-Cy0S7zGGRTdD7gFje-223" target="hw-Cy0S7zGGRTdD7gFje-215">
          <mxGeometry relative="1" as="geometry" />
        </mxCell>
        <mxCell id="hw-Cy0S7zGGRTdD7gFje-223" value="查看PO文" style="rounded=1;whiteSpace=wrap;html=1;" vertex="1" parent="1">
          <mxGeometry x="688.46" y="2569" width="82.5" height="40" as="geometry" />
        </mxCell>
        <mxCell id="hw-Cy0S7zGGRTdD7gFje-224" style="edgeStyle=orthogonalEdgeStyle;rounded=0;orthogonalLoop=1;jettySize=auto;html=1;exitX=0;exitY=0.5;exitDx=0;exitDy=0;" edge="1" parent="1" source="hw-Cy0S7zGGRTdD7gFje-221">
          <mxGeometry relative="1" as="geometry">
            <mxPoint x="717.21" y="2365" as="targetPoint" />
            <Array as="points">
              <mxPoint x="629.97" y="3000" />
              <mxPoint x="629.97" y="2365" />
            </Array>
            <mxPoint x="647.25" y="3015" as="sourcePoint" />
          </mxGeometry>
        </mxCell>
        <mxCell id="hw-Cy0S7zGGRTdD7gFje-225" style="edgeStyle=orthogonalEdgeStyle;rounded=0;orthogonalLoop=1;jettySize=auto;html=1;exitX=0.5;exitY=1;exitDx=0;exitDy=0;entryX=0.5;entryY=0;entryDx=0;entryDy=0;" edge="1" parent="1" source="hw-Cy0S7zGGRTdD7gFje-226" target="hw-Cy0S7zGGRTdD7gFje-220">
          <mxGeometry relative="1" as="geometry" />
        </mxCell>
        <mxCell id="hw-Cy0S7zGGRTdD7gFje-226" value="待管理員審核通過" style="rounded=1;whiteSpace=wrap;html=1;" vertex="1" parent="1">
          <mxGeometry x="687.83" y="2812.4" width="82.5" height="40" as="geometry" />
        </mxCell>
        <mxCell id="hw-Cy0S7zGGRTdD7gFje-227" value="確認送出" style="rounded=1;whiteSpace=wrap;html=1;" vertex="1" parent="1">
          <mxGeometry x="688.46" y="2732.4" width="82.5" height="40" as="geometry" />
        </mxCell>
        <mxCell id="hw-Cy0S7zGGRTdD7gFje-228" style="edgeStyle=orthogonalEdgeStyle;rounded=0;orthogonalLoop=1;jettySize=auto;html=1;exitX=0.5;exitY=1;exitDx=0;exitDy=0;entryX=0.5;entryY=0;entryDx=0;entryDy=0;" edge="1" parent="1" target="hw-Cy0S7zGGRTdD7gFje-226">
          <mxGeometry relative="1" as="geometry">
            <mxPoint x="729.1200000000001" y="2772.4" as="sourcePoint" />
            <mxPoint x="729.1200000000001" y="2814.4" as="targetPoint" />
          </mxGeometry>
        </mxCell>
        <mxCell id="hw-Cy0S7zGGRTdD7gFje-229" value="&lt;span style=&quot;font-size: 25px;&quot;&gt;使用者個案圖&lt;/span&gt;" style="text;html=1;align=center;verticalAlign=middle;whiteSpace=wrap;rounded=0;" vertex="1" parent="1">
          <mxGeometry x="354.93" y="1030" width="183" height="30" as="geometry" />
        </mxCell>
        <mxCell id="hw-Cy0S7zGGRTdD7gFje-230" value="&lt;span style=&quot;font-size: 25px;&quot;&gt;使用者個案描述&lt;/span&gt;" style="text;html=1;align=center;verticalAlign=middle;whiteSpace=wrap;rounded=0;" vertex="1" parent="1">
          <mxGeometry x="354.93" y="1139" width="183" height="30" as="geometry" />
        </mxCell>
        <mxCell id="hw-Cy0S7zGGRTdD7gFje-231" value="" style="shape=link;html=1;rounded=0;" edge="1" parent="1">
          <mxGeometry width="100" relative="1" as="geometry">
            <mxPoint y="1090" as="sourcePoint" />
            <mxPoint x="1150" y="1090" as="targetPoint" />
          </mxGeometry>
        </mxCell>
        <mxCell id="hw-Cy0S7zGGRTdD7gFje-234" value="&lt;span style=&quot;font-size: 25px;&quot;&gt;搜尋房屋-房客&lt;/span&gt;" style="text;html=1;align=center;verticalAlign=middle;whiteSpace=wrap;rounded=0;" vertex="1" parent="1">
          <mxGeometry x="62.63" y="1754" width="183" height="30" as="geometry" />
        </mxCell>
        <mxCell id="hw-Cy0S7zGGRTdD7gFje-235" value="&lt;span style=&quot;font-size: 25px;&quot;&gt;登出&lt;/span&gt;" style="text;html=1;align=center;verticalAlign=middle;whiteSpace=wrap;rounded=0;" vertex="1" parent="1">
          <mxGeometry x="925.4" y="3995" width="183" height="30" as="geometry" />
        </mxCell>
        <mxCell id="hw-Cy0S7zGGRTdD7gFje-236" value="&lt;span style=&quot;font-size: 25px;&quot;&gt;收藏房屋-房客&lt;/span&gt;" style="text;html=1;align=center;verticalAlign=middle;whiteSpace=wrap;rounded=0;" vertex="1" parent="1">
          <mxGeometry x="600" y="1840" width="183" height="30" as="geometry" />
        </mxCell>
        <mxCell id="hw-Cy0S7zGGRTdD7gFje-237" value="&lt;span style=&quot;font-size: 25px;&quot;&gt;查看及修改個人檔案&lt;/span&gt;" style="text;html=1;align=center;verticalAlign=middle;whiteSpace=wrap;rounded=0;" vertex="1" parent="1">
          <mxGeometry x="612.1799999999998" y="4085" width="235.06" height="30" as="geometry" />
        </mxCell>
        <mxCell id="hw-Cy0S7zGGRTdD7gFje-238" value="&lt;span style=&quot;font-size: 25px;&quot;&gt;PO文-房東&lt;/span&gt;" style="text;html=1;align=center;verticalAlign=middle;whiteSpace=wrap;rounded=0;" vertex="1" parent="1">
          <mxGeometry x="102.87999999999997" y="2980" width="183" height="30" as="geometry" />
        </mxCell>
        <mxCell id="hw-Cy0S7zGGRTdD7gFje-239" value="&lt;span style=&quot;font-size: 25px;&quot;&gt;修改PO文-房東&lt;/span&gt;" style="text;html=1;align=center;verticalAlign=middle;whiteSpace=wrap;rounded=0;" vertex="1" parent="1">
          <mxGeometry x="638.21" y="3090" width="183" height="30" as="geometry" />
        </mxCell>
        <mxCell id="hw-Cy0S7zGGRTdD7gFje-240" value="" style="ellipse;html=1;shape=endState;fillColor=#000000;strokeColor=#ff0000;" vertex="1" parent="1">
          <mxGeometry x="176.96" y="3290" width="30" height="30" as="geometry" />
        </mxCell>
        <mxCell id="hw-Cy0S7zGGRTdD7gFje-241" style="edgeStyle=orthogonalEdgeStyle;rounded=0;orthogonalLoop=1;jettySize=auto;html=1;entryX=0.5;entryY=0;entryDx=0;entryDy=0;" edge="1" parent="1" target="hw-Cy0S7zGGRTdD7gFje-245">
          <mxGeometry relative="1" as="geometry">
            <mxPoint x="191.96" y="3380" as="sourcePoint" />
          </mxGeometry>
        </mxCell>
        <mxCell id="hw-Cy0S7zGGRTdD7gFje-242" style="edgeStyle=orthogonalEdgeStyle;rounded=0;orthogonalLoop=1;jettySize=auto;html=1;exitX=0.611;exitY=0.744;exitDx=0;exitDy=0;entryX=0.5;entryY=1;entryDx=0;entryDy=0;exitPerimeter=0;" edge="1" parent="1" source="hw-Cy0S7zGGRTdD7gFje-243" target="hw-Cy0S7zGGRTdD7gFje-240">
          <mxGeometry relative="1" as="geometry">
            <Array as="points">
              <mxPoint x="191.96" y="3382" />
            </Array>
          </mxGeometry>
        </mxCell>
        <mxCell id="hw-Cy0S7zGGRTdD7gFje-243" value="" style="ellipse;html=1;shape=startState;fillColor=#000000;strokeColor=#33001A;" vertex="1" parent="1">
          <mxGeometry x="176.96" y="3360" width="30" height="30" as="geometry" />
        </mxCell>
        <mxCell id="hw-Cy0S7zGGRTdD7gFje-244" style="edgeStyle=orthogonalEdgeStyle;rounded=0;orthogonalLoop=1;jettySize=auto;html=1;exitX=0.5;exitY=1;exitDx=0;exitDy=0;" edge="1" parent="1" source="hw-Cy0S7zGGRTdD7gFje-245" target="hw-Cy0S7zGGRTdD7gFje-247">
          <mxGeometry relative="1" as="geometry" />
        </mxCell>
        <mxCell id="hw-Cy0S7zGGRTdD7gFje-245" value="" style="rounded=1;whiteSpace=wrap;html=1;fillColor=#33001A;" vertex="1" parent="1">
          <mxGeometry x="138.21" y="3430" width="107.5" height="30" as="geometry" />
        </mxCell>
        <mxCell id="hw-Cy0S7zGGRTdD7gFje-246" style="edgeStyle=orthogonalEdgeStyle;rounded=0;orthogonalLoop=1;jettySize=auto;html=1;exitX=0.5;exitY=1;exitDx=0;exitDy=0;entryX=0.5;entryY=0;entryDx=0;entryDy=0;" edge="1" parent="1" source="hw-Cy0S7zGGRTdD7gFje-247" target="hw-Cy0S7zGGRTdD7gFje-257">
          <mxGeometry relative="1" as="geometry">
            <mxPoint x="228.21" y="3570" as="targetPoint" />
          </mxGeometry>
        </mxCell>
        <mxCell id="hw-Cy0S7zGGRTdD7gFje-247" value="登入" style="rounded=1;whiteSpace=wrap;html=1;" vertex="1" parent="1">
          <mxGeometry x="150.71" y="3500" width="82.5" height="40" as="geometry" />
        </mxCell>
        <mxCell id="hw-Cy0S7zGGRTdD7gFje-248" style="edgeStyle=orthogonalEdgeStyle;rounded=0;orthogonalLoop=1;jettySize=auto;html=1;exitX=0.5;exitY=1;exitDx=0;exitDy=0;entryX=0.5;entryY=0;entryDx=0;entryDy=0;" edge="1" parent="1" source="hw-Cy0S7zGGRTdD7gFje-249">
          <mxGeometry relative="1" as="geometry">
            <mxPoint x="191.96000000000004" y="3740" as="targetPoint" />
          </mxGeometry>
        </mxCell>
        <mxCell id="hw-Cy0S7zGGRTdD7gFje-249" value="是否正確" style="rounded=1;whiteSpace=wrap;html=1;" vertex="1" parent="1">
          <mxGeometry x="150.71" y="3660" width="82.5" height="40" as="geometry" />
        </mxCell>
        <mxCell id="hw-Cy0S7zGGRTdD7gFje-250" style="edgeStyle=orthogonalEdgeStyle;rounded=0;orthogonalLoop=1;jettySize=auto;html=1;exitX=0.5;exitY=1;exitDx=0;exitDy=0;entryX=0.5;entryY=0;entryDx=0;entryDy=0;" edge="1" parent="1" source="hw-Cy0S7zGGRTdD7gFje-254" target="hw-Cy0S7zGGRTdD7gFje-255">
          <mxGeometry relative="1" as="geometry">
            <mxPoint x="191.46" y="3890" as="targetPoint" />
          </mxGeometry>
        </mxCell>
        <mxCell id="hw-Cy0S7zGGRTdD7gFje-251" value="無錯誤" style="edgeLabel;html=1;align=center;verticalAlign=middle;resizable=0;points=[];" connectable="0" vertex="1" parent="hw-Cy0S7zGGRTdD7gFje-250">
          <mxGeometry x="-0.4667" y="1" relative="1" as="geometry">
            <mxPoint as="offset" />
          </mxGeometry>
        </mxCell>
        <mxCell id="hw-Cy0S7zGGRTdD7gFje-254" value="" style="rhombus;whiteSpace=wrap;html=1;" vertex="1" parent="1">
          <mxGeometry x="178.2100000000001" y="3740" width="28.75" height="30" as="geometry" />
        </mxCell>
        <mxCell id="hw-Cy0S7zGGRTdD7gFje-255" value="審核通過" style="rounded=1;whiteSpace=wrap;html=1;" vertex="1" parent="1">
          <mxGeometry x="150.71" y="3820" width="82.5" height="40" as="geometry" />
        </mxCell>
        <mxCell id="hw-Cy0S7zGGRTdD7gFje-256" style="edgeStyle=orthogonalEdgeStyle;rounded=0;orthogonalLoop=1;jettySize=auto;html=1;exitX=0.5;exitY=1;exitDx=0;exitDy=0;entryX=0.5;entryY=0;entryDx=0;entryDy=0;" edge="1" parent="1" source="hw-Cy0S7zGGRTdD7gFje-257" target="hw-Cy0S7zGGRTdD7gFje-249">
          <mxGeometry relative="1" as="geometry" />
        </mxCell>
        <mxCell id="hw-Cy0S7zGGRTdD7gFje-257" value="查看房東待審核之出租資料" style="rounded=1;whiteSpace=wrap;html=1;" vertex="1" parent="1">
          <mxGeometry x="150.71" y="3579" width="82.5" height="40" as="geometry" />
        </mxCell>
        <mxCell id="hw-Cy0S7zGGRTdD7gFje-258" style="edgeStyle=orthogonalEdgeStyle;rounded=0;orthogonalLoop=1;jettySize=auto;html=1;exitX=0;exitY=0.5;exitDx=0;exitDy=0;" edge="1" parent="1" source="hw-Cy0S7zGGRTdD7gFje-255">
          <mxGeometry relative="1" as="geometry">
            <mxPoint x="179.46" y="3375" as="targetPoint" />
            <Array as="points">
              <mxPoint x="92" y="3840" />
              <mxPoint x="92" y="3375" />
            </Array>
            <mxPoint x="109.50000000000004" y="4025" as="sourcePoint" />
          </mxGeometry>
        </mxCell>
        <mxCell id="hw-Cy0S7zGGRTdD7gFje-261" value="&lt;span style=&quot;font-size: 25px;&quot;&gt;審核PO文-管理員&lt;/span&gt;" style="text;html=1;align=center;verticalAlign=middle;whiteSpace=wrap;rounded=0;" vertex="1" parent="1">
          <mxGeometry x="109.00999999999999" y="3920" width="197.04" height="30" as="geometry" />
        </mxCell>
        <mxCell id="hw-Cy0S7zGGRTdD7gFje-273" style="edgeStyle=orthogonalEdgeStyle;rounded=0;orthogonalLoop=1;jettySize=auto;html=1;exitX=1;exitY=0.5;exitDx=0;exitDy=0;entryX=0;entryY=0.5;entryDx=0;entryDy=0;" edge="1" parent="1" source="hw-Cy0S7zGGRTdD7gFje-264" target="hw-Cy0S7zGGRTdD7gFje-271">
          <mxGeometry relative="1" as="geometry" />
        </mxCell>
        <mxCell id="hw-Cy0S7zGGRTdD7gFje-264" value="退回給房東" style="rounded=1;whiteSpace=wrap;html=1;" vertex="1" parent="1">
          <mxGeometry x="272.43" y="3735" width="82.5" height="40" as="geometry" />
        </mxCell>
        <mxCell id="hw-Cy0S7zGGRTdD7gFje-267" style="edgeStyle=orthogonalEdgeStyle;rounded=0;orthogonalLoop=1;jettySize=auto;html=1;exitX=1;exitY=0.5;exitDx=0;exitDy=0;entryX=0;entryY=0.5;entryDx=0;entryDy=0;" edge="1" parent="1" source="hw-Cy0S7zGGRTdD7gFje-254" target="hw-Cy0S7zGGRTdD7gFje-264">
          <mxGeometry relative="1" as="geometry">
            <mxPoint x="272.43" y="3840" as="targetPoint" />
            <mxPoint x="273.43" y="3770" as="sourcePoint" />
          </mxGeometry>
        </mxCell>
        <mxCell id="hw-Cy0S7zGGRTdD7gFje-268" value="有錯誤" style="edgeLabel;html=1;align=center;verticalAlign=middle;resizable=0;points=[];" connectable="0" vertex="1" parent="hw-Cy0S7zGGRTdD7gFje-267">
          <mxGeometry x="-0.4667" y="1" relative="1" as="geometry">
            <mxPoint as="offset" />
          </mxGeometry>
        </mxCell>
        <mxCell id="hw-Cy0S7zGGRTdD7gFje-276" style="edgeStyle=orthogonalEdgeStyle;rounded=0;orthogonalLoop=1;jettySize=auto;html=1;exitX=0.5;exitY=0;exitDx=0;exitDy=0;entryX=1;entryY=0.5;entryDx=0;entryDy=0;" edge="1" parent="1" source="hw-Cy0S7zGGRTdD7gFje-271" target="hw-Cy0S7zGGRTdD7gFje-249">
          <mxGeometry relative="1" as="geometry" />
        </mxCell>
        <mxCell id="hw-Cy0S7zGGRTdD7gFje-271" value="再次審核修改過後的資料" style="rounded=1;whiteSpace=wrap;html=1;" vertex="1" parent="1">
          <mxGeometry x="393.75" y="3735" width="82.5" height="40" as="geometry" />
        </mxCell>
        <mxCell id="hw-Cy0S7zGGRTdD7gFje-277" value="" style="ellipse;html=1;shape=endState;fillColor=#000000;strokeColor=#ff0000;" vertex="1" parent="1">
          <mxGeometry x="146.5" y="4350" width="30" height="30" as="geometry" />
        </mxCell>
        <mxCell id="hw-Cy0S7zGGRTdD7gFje-278" style="edgeStyle=orthogonalEdgeStyle;rounded=0;orthogonalLoop=1;jettySize=auto;html=1;entryX=0.5;entryY=0;entryDx=0;entryDy=0;" edge="1" parent="1" target="hw-Cy0S7zGGRTdD7gFje-282">
          <mxGeometry relative="1" as="geometry">
            <mxPoint x="161.5" y="4440" as="sourcePoint" />
          </mxGeometry>
        </mxCell>
        <mxCell id="hw-Cy0S7zGGRTdD7gFje-279" style="edgeStyle=orthogonalEdgeStyle;rounded=0;orthogonalLoop=1;jettySize=auto;html=1;exitX=0.611;exitY=0.744;exitDx=0;exitDy=0;entryX=0.5;entryY=1;entryDx=0;entryDy=0;exitPerimeter=0;" edge="1" parent="1" source="hw-Cy0S7zGGRTdD7gFje-280" target="hw-Cy0S7zGGRTdD7gFje-277">
          <mxGeometry relative="1" as="geometry">
            <Array as="points">
              <mxPoint x="161.5" y="4442" />
            </Array>
          </mxGeometry>
        </mxCell>
        <mxCell id="hw-Cy0S7zGGRTdD7gFje-280" value="" style="ellipse;html=1;shape=startState;fillColor=#000000;strokeColor=#33001A;" vertex="1" parent="1">
          <mxGeometry x="146.5" y="4420" width="30" height="30" as="geometry" />
        </mxCell>
        <mxCell id="hw-Cy0S7zGGRTdD7gFje-281" style="edgeStyle=orthogonalEdgeStyle;rounded=0;orthogonalLoop=1;jettySize=auto;html=1;exitX=0.5;exitY=1;exitDx=0;exitDy=0;" edge="1" parent="1" source="hw-Cy0S7zGGRTdD7gFje-282">
          <mxGeometry relative="1" as="geometry">
            <mxPoint x="161.51470588235316" y="4560" as="targetPoint" />
          </mxGeometry>
        </mxCell>
        <mxCell id="hw-Cy0S7zGGRTdD7gFje-282" value="" style="rounded=1;whiteSpace=wrap;html=1;fillColor=#33001A;" vertex="1" parent="1">
          <mxGeometry x="107.74999999999989" y="4490" width="107.5" height="30" as="geometry" />
        </mxCell>
        <mxCell id="hw-Cy0S7zGGRTdD7gFje-288" style="edgeStyle=orthogonalEdgeStyle;rounded=0;orthogonalLoop=1;jettySize=auto;html=1;exitX=0;exitY=0.5;exitDx=0;exitDy=0;entryX=0;entryY=0.5;entryDx=0;entryDy=0;" edge="1" parent="1" target="hw-Cy0S7zGGRTdD7gFje-280">
          <mxGeometry relative="1" as="geometry">
            <mxPoint x="147.75" y="4435" as="targetPoint" />
            <Array as="points">
              <mxPoint x="120" y="4810" />
              <mxPoint x="88" y="4810" />
              <mxPoint x="88" y="4435" />
            </Array>
            <mxPoint x="120.25" y="4820" as="sourcePoint" />
          </mxGeometry>
        </mxCell>
        <mxCell id="hw-Cy0S7zGGRTdD7gFje-291" value="&lt;span style=&quot;font-size: 25px;&quot;&gt;註冊&lt;/span&gt;" style="text;html=1;align=center;verticalAlign=middle;whiteSpace=wrap;rounded=0;" vertex="1" parent="1">
          <mxGeometry x="69.99999999999989" y="4890" width="183" height="30" as="geometry" />
        </mxCell>
        <mxCell id="hw-Cy0S7zGGRTdD7gFje-294" style="edgeStyle=orthogonalEdgeStyle;rounded=0;orthogonalLoop=1;jettySize=auto;html=1;exitX=0.5;exitY=1;exitDx=0;exitDy=0;entryX=0.5;entryY=0;entryDx=0;entryDy=0;" edge="1" parent="1" source="hw-Cy0S7zGGRTdD7gFje-292" target="hw-Cy0S7zGGRTdD7gFje-293">
          <mxGeometry relative="1" as="geometry" />
        </mxCell>
        <mxCell id="hw-Cy0S7zGGRTdD7gFje-295" value="無帳號" style="edgeLabel;html=1;align=center;verticalAlign=middle;resizable=0;points=[];" connectable="0" vertex="1" parent="hw-Cy0S7zGGRTdD7gFje-294">
          <mxGeometry x="-0.2274" relative="1" as="geometry">
            <mxPoint as="offset" />
          </mxGeometry>
        </mxCell>
        <mxCell id="hw-Cy0S7zGGRTdD7gFje-305" style="edgeStyle=orthogonalEdgeStyle;rounded=0;orthogonalLoop=1;jettySize=auto;html=1;exitX=1;exitY=0.5;exitDx=0;exitDy=0;entryX=0.5;entryY=0;entryDx=0;entryDy=0;" edge="1" parent="1" source="hw-Cy0S7zGGRTdD7gFje-292" target="hw-Cy0S7zGGRTdD7gFje-302">
          <mxGeometry relative="1" as="geometry" />
        </mxCell>
        <mxCell id="hw-Cy0S7zGGRTdD7gFje-306" value="有帳號" style="edgeLabel;html=1;align=center;verticalAlign=middle;resizable=0;points=[];" connectable="0" vertex="1" parent="hw-Cy0S7zGGRTdD7gFje-305">
          <mxGeometry x="-0.4288" y="1" relative="1" as="geometry">
            <mxPoint x="-1" as="offset" />
          </mxGeometry>
        </mxCell>
        <mxCell id="hw-Cy0S7zGGRTdD7gFje-292" value="" style="rhombus;whiteSpace=wrap;html=1;" vertex="1" parent="1">
          <mxGeometry x="147.12999999999994" y="4560" width="28.75" height="30" as="geometry" />
        </mxCell>
        <mxCell id="hw-Cy0S7zGGRTdD7gFje-299" style="edgeStyle=orthogonalEdgeStyle;rounded=0;orthogonalLoop=1;jettySize=auto;html=1;exitX=0.5;exitY=1;exitDx=0;exitDy=0;entryX=0.5;entryY=0;entryDx=0;entryDy=0;" edge="1" parent="1" source="hw-Cy0S7zGGRTdD7gFje-293" target="hw-Cy0S7zGGRTdD7gFje-296">
          <mxGeometry relative="1" as="geometry" />
        </mxCell>
        <mxCell id="hw-Cy0S7zGGRTdD7gFje-293" value="註冊" style="rounded=1;whiteSpace=wrap;html=1;" vertex="1" parent="1">
          <mxGeometry x="120.24999999999993" y="4630" width="82.5" height="40" as="geometry" />
        </mxCell>
        <mxCell id="hw-Cy0S7zGGRTdD7gFje-304" style="edgeStyle=orthogonalEdgeStyle;rounded=0;orthogonalLoop=1;jettySize=auto;html=1;exitX=1;exitY=0.5;exitDx=0;exitDy=0;entryX=0;entryY=0.5;entryDx=0;entryDy=0;" edge="1" parent="1" source="hw-Cy0S7zGGRTdD7gFje-296" target="hw-Cy0S7zGGRTdD7gFje-302">
          <mxGeometry relative="1" as="geometry" />
        </mxCell>
        <mxCell id="hw-Cy0S7zGGRTdD7gFje-307" value="成功" style="edgeLabel;html=1;align=center;verticalAlign=middle;resizable=0;points=[];" connectable="0" vertex="1" parent="hw-Cy0S7zGGRTdD7gFje-304">
          <mxGeometry x="-0.3628" y="-1" relative="1" as="geometry">
            <mxPoint as="offset" />
          </mxGeometry>
        </mxCell>
        <mxCell id="hw-Cy0S7zGGRTdD7gFje-296" value="" style="rhombus;whiteSpace=wrap;html=1;" vertex="1" parent="1">
          <mxGeometry x="146.49999999999994" y="4711" width="28.75" height="30" as="geometry" />
        </mxCell>
        <mxCell id="hw-Cy0S7zGGRTdD7gFje-300" style="edgeStyle=orthogonalEdgeStyle;rounded=0;orthogonalLoop=1;jettySize=auto;html=1;exitX=0.5;exitY=1;exitDx=0;exitDy=0;entryX=0.5;entryY=0;entryDx=0;entryDy=0;" edge="1" parent="1" source="hw-Cy0S7zGGRTdD7gFje-296" target="hw-Cy0S7zGGRTdD7gFje-308">
          <mxGeometry relative="1" as="geometry">
            <mxPoint x="159.38" y="4740" as="sourcePoint" />
            <mxPoint x="159.38" y="4781" as="targetPoint" />
          </mxGeometry>
        </mxCell>
        <mxCell id="hw-Cy0S7zGGRTdD7gFje-301" value="失敗" style="edgeLabel;html=1;align=center;verticalAlign=middle;resizable=0;points=[];" connectable="0" vertex="1" parent="hw-Cy0S7zGGRTdD7gFje-300">
          <mxGeometry x="-0.3027" y="1" relative="1" as="geometry">
            <mxPoint as="offset" />
          </mxGeometry>
        </mxCell>
        <mxCell id="hw-Cy0S7zGGRTdD7gFje-309" style="edgeStyle=orthogonalEdgeStyle;rounded=0;orthogonalLoop=1;jettySize=auto;html=1;exitX=1;exitY=0.5;exitDx=0;exitDy=0;entryX=1;entryY=0.5;entryDx=0;entryDy=0;" edge="1" parent="1" source="hw-Cy0S7zGGRTdD7gFje-302" target="hw-Cy0S7zGGRTdD7gFje-280">
          <mxGeometry relative="1" as="geometry" />
        </mxCell>
        <mxCell id="hw-Cy0S7zGGRTdD7gFje-302" value="登入" style="rounded=1;whiteSpace=wrap;html=1;" vertex="1" parent="1">
          <mxGeometry x="252.99999999999994" y="4706" width="82.5" height="40" as="geometry" />
        </mxCell>
        <mxCell id="hw-Cy0S7zGGRTdD7gFje-308" value="錯誤訊息" style="rounded=1;whiteSpace=wrap;html=1;" vertex="1" parent="1">
          <mxGeometry x="120.24999999999994" y="4790" width="82.5" height="40" as="geometry" />
        </mxCell>
        <mxCell id="hw-Cy0S7zGGRTdD7gFje-310" value="" style="ellipse;html=1;shape=endState;fillColor=#000000;strokeColor=#ff0000;" vertex="1" parent="1">
          <mxGeometry x="641.09" y="4350" width="30" height="30" as="geometry" />
        </mxCell>
        <mxCell id="hw-Cy0S7zGGRTdD7gFje-311" style="edgeStyle=orthogonalEdgeStyle;rounded=0;orthogonalLoop=1;jettySize=auto;html=1;entryX=0.5;entryY=0;entryDx=0;entryDy=0;" edge="1" parent="1" target="hw-Cy0S7zGGRTdD7gFje-315">
          <mxGeometry relative="1" as="geometry">
            <mxPoint x="656.09" y="4440" as="sourcePoint" />
          </mxGeometry>
        </mxCell>
        <mxCell id="hw-Cy0S7zGGRTdD7gFje-312" style="edgeStyle=orthogonalEdgeStyle;rounded=0;orthogonalLoop=1;jettySize=auto;html=1;exitX=0.611;exitY=0.744;exitDx=0;exitDy=0;entryX=0.5;entryY=1;entryDx=0;entryDy=0;exitPerimeter=0;" edge="1" parent="1" source="hw-Cy0S7zGGRTdD7gFje-313" target="hw-Cy0S7zGGRTdD7gFje-310">
          <mxGeometry relative="1" as="geometry">
            <Array as="points">
              <mxPoint x="656.09" y="4442" />
            </Array>
          </mxGeometry>
        </mxCell>
        <mxCell id="hw-Cy0S7zGGRTdD7gFje-313" value="" style="ellipse;html=1;shape=startState;fillColor=#000000;strokeColor=#33001A;" vertex="1" parent="1">
          <mxGeometry x="641.09" y="4420" width="30" height="30" as="geometry" />
        </mxCell>
        <mxCell id="hw-Cy0S7zGGRTdD7gFje-314" style="edgeStyle=orthogonalEdgeStyle;rounded=0;orthogonalLoop=1;jettySize=auto;html=1;exitX=0.5;exitY=1;exitDx=0;exitDy=0;" edge="1" parent="1" source="hw-Cy0S7zGGRTdD7gFje-315">
          <mxGeometry relative="1" as="geometry">
            <mxPoint x="656.1047058823532" y="4560" as="targetPoint" />
          </mxGeometry>
        </mxCell>
        <mxCell id="hw-Cy0S7zGGRTdD7gFje-315" value="" style="rounded=1;whiteSpace=wrap;html=1;fillColor=#33001A;" vertex="1" parent="1">
          <mxGeometry x="602.3399999999998" y="4490" width="107.5" height="30" as="geometry" />
        </mxCell>
        <mxCell id="hw-Cy0S7zGGRTdD7gFje-317" value="&lt;span style=&quot;font-size: 25px;&quot;&gt;登入&lt;/span&gt;" style="text;html=1;align=center;verticalAlign=middle;whiteSpace=wrap;rounded=0;" vertex="1" parent="1">
          <mxGeometry x="602.34" y="4761" width="75.41" height="30" as="geometry" />
        </mxCell>
        <mxCell id="hw-Cy0S7zGGRTdD7gFje-318" style="edgeStyle=orthogonalEdgeStyle;rounded=0;orthogonalLoop=1;jettySize=auto;html=1;exitX=0.5;exitY=1;exitDx=0;exitDy=0;entryX=0.5;entryY=0;entryDx=0;entryDy=0;" edge="1" parent="1" source="hw-Cy0S7zGGRTdD7gFje-322" target="hw-Cy0S7zGGRTdD7gFje-324">
          <mxGeometry relative="1" as="geometry" />
        </mxCell>
        <mxCell id="hw-Cy0S7zGGRTdD7gFje-319" value="登入成功" style="edgeLabel;html=1;align=center;verticalAlign=middle;resizable=0;points=[];" connectable="0" vertex="1" parent="hw-Cy0S7zGGRTdD7gFje-318">
          <mxGeometry x="-0.2274" relative="1" as="geometry">
            <mxPoint as="offset" />
          </mxGeometry>
        </mxCell>
        <mxCell id="hw-Cy0S7zGGRTdD7gFje-320" style="edgeStyle=orthogonalEdgeStyle;rounded=0;orthogonalLoop=1;jettySize=auto;html=1;exitX=1;exitY=0.5;exitDx=0;exitDy=0;entryX=1;entryY=0.5;entryDx=0;entryDy=0;" edge="1" parent="1" source="hw-Cy0S7zGGRTdD7gFje-322" target="hw-Cy0S7zGGRTdD7gFje-313">
          <mxGeometry relative="1" as="geometry">
            <Array as="points">
              <mxPoint x="770" y="4575" />
              <mxPoint x="770" y="4435" />
            </Array>
          </mxGeometry>
        </mxCell>
        <mxCell id="hw-Cy0S7zGGRTdD7gFje-321" value="登入失敗" style="edgeLabel;html=1;align=center;verticalAlign=middle;resizable=0;points=[];" connectable="0" vertex="1" parent="hw-Cy0S7zGGRTdD7gFje-320">
          <mxGeometry x="-0.4288" y="1" relative="1" as="geometry">
            <mxPoint x="-1" as="offset" />
          </mxGeometry>
        </mxCell>
        <mxCell id="hw-Cy0S7zGGRTdD7gFje-322" value="" style="rhombus;whiteSpace=wrap;html=1;" vertex="1" parent="1">
          <mxGeometry x="641.7199999999999" y="4560" width="28.75" height="30" as="geometry" />
        </mxCell>
        <mxCell id="hw-Cy0S7zGGRTdD7gFje-323" style="edgeStyle=orthogonalEdgeStyle;rounded=0;orthogonalLoop=1;jettySize=auto;html=1;exitX=0.5;exitY=1;exitDx=0;exitDy=0;entryX=0.5;entryY=0;entryDx=0;entryDy=0;" edge="1" parent="1" source="hw-Cy0S7zGGRTdD7gFje-324" target="hw-Cy0S7zGGRTdD7gFje-332">
          <mxGeometry relative="1" as="geometry">
            <mxPoint x="655.4650000000001" y="4711" as="targetPoint" />
          </mxGeometry>
        </mxCell>
        <mxCell id="hw-Cy0S7zGGRTdD7gFje-324" value="登入" style="rounded=1;whiteSpace=wrap;html=1;" vertex="1" parent="1">
          <mxGeometry x="614.84" y="4630" width="82.5" height="40" as="geometry" />
        </mxCell>
        <mxCell id="hw-Cy0S7zGGRTdD7gFje-337" style="edgeStyle=orthogonalEdgeStyle;rounded=0;orthogonalLoop=1;jettySize=auto;html=1;exitX=0;exitY=0.5;exitDx=0;exitDy=0;entryX=0;entryY=0.5;entryDx=0;entryDy=0;" edge="1" parent="1" source="hw-Cy0S7zGGRTdD7gFje-332" target="hw-Cy0S7zGGRTdD7gFje-313">
          <mxGeometry relative="1" as="geometry">
            <Array as="points">
              <mxPoint x="475" y="4721" />
              <mxPoint x="475" y="4435" />
            </Array>
            <mxPoint x="580" y="4390" as="targetPoint" />
          </mxGeometry>
        </mxCell>
        <mxCell id="hw-Cy0S7zGGRTdD7gFje-332" value="登入成功訊息並進入頁面" style="rounded=1;whiteSpace=wrap;html=1;" vertex="1" parent="1">
          <mxGeometry x="614.84" y="4701" width="82.5" height="40" as="geometry" />
        </mxCell>
        <mxCell id="ytusaP-ryzODyK1H7M8E-34" value="" style="ellipse;html=1;shape=endState;fillColor=#000000;strokeColor=#ff0000;" vertex="1" parent="1">
          <mxGeometry x="1026.0900000000001" y="4340" width="30" height="30" as="geometry" />
        </mxCell>
        <mxCell id="ytusaP-ryzODyK1H7M8E-35" style="edgeStyle=orthogonalEdgeStyle;rounded=0;orthogonalLoop=1;jettySize=auto;html=1;entryX=0.5;entryY=0;entryDx=0;entryDy=0;" edge="1" parent="1" target="ytusaP-ryzODyK1H7M8E-39">
          <mxGeometry relative="1" as="geometry">
            <mxPoint x="1041.0900000000001" y="4430" as="sourcePoint" />
          </mxGeometry>
        </mxCell>
        <mxCell id="ytusaP-ryzODyK1H7M8E-36" style="edgeStyle=orthogonalEdgeStyle;rounded=0;orthogonalLoop=1;jettySize=auto;html=1;exitX=0.611;exitY=0.744;exitDx=0;exitDy=0;entryX=0.5;entryY=1;entryDx=0;entryDy=0;exitPerimeter=0;" edge="1" parent="1" source="ytusaP-ryzODyK1H7M8E-37" target="ytusaP-ryzODyK1H7M8E-34">
          <mxGeometry relative="1" as="geometry">
            <Array as="points">
              <mxPoint x="1041.0900000000001" y="4432" />
            </Array>
          </mxGeometry>
        </mxCell>
        <mxCell id="ytusaP-ryzODyK1H7M8E-37" value="" style="ellipse;html=1;shape=startState;fillColor=#000000;strokeColor=#33001A;" vertex="1" parent="1">
          <mxGeometry x="1026.0900000000001" y="4410" width="30" height="30" as="geometry" />
        </mxCell>
        <mxCell id="ytusaP-ryzODyK1H7M8E-38" style="edgeStyle=orthogonalEdgeStyle;rounded=0;orthogonalLoop=1;jettySize=auto;html=1;exitX=0.5;exitY=1;exitDx=0;exitDy=0;" edge="1" parent="1" source="ytusaP-ryzODyK1H7M8E-39">
          <mxGeometry relative="1" as="geometry">
            <mxPoint x="1041.1047058823533" y="4550" as="targetPoint" />
          </mxGeometry>
        </mxCell>
        <mxCell id="ytusaP-ryzODyK1H7M8E-39" value="" style="rounded=1;whiteSpace=wrap;html=1;fillColor=#33001A;" vertex="1" parent="1">
          <mxGeometry x="987.3399999999998" y="4480" width="107.5" height="30" as="geometry" />
        </mxCell>
        <mxCell id="ytusaP-ryzODyK1H7M8E-40" value="&lt;span style=&quot;font-size: 25px;&quot;&gt;忘記密碼&lt;/span&gt;" style="text;html=1;align=center;verticalAlign=middle;whiteSpace=wrap;rounded=0;" vertex="1" parent="1">
          <mxGeometry x="956.25" y="4760" width="121.31" height="30" as="geometry" />
        </mxCell>
        <mxCell id="ytusaP-ryzODyK1H7M8E-48" style="edgeStyle=orthogonalEdgeStyle;rounded=0;orthogonalLoop=1;jettySize=auto;html=1;exitX=0;exitY=0.5;exitDx=0;exitDy=0;entryX=0;entryY=0.5;entryDx=0;entryDy=0;" edge="1" parent="1" target="ytusaP-ryzODyK1H7M8E-37">
          <mxGeometry relative="1" as="geometry">
            <Array as="points">
              <mxPoint x="860" y="4711" />
              <mxPoint x="860" y="4425" />
            </Array>
            <mxPoint x="965" y="4380" as="targetPoint" />
            <mxPoint x="999.8400000000001" y="4711" as="sourcePoint" />
          </mxGeometry>
        </mxCell>
        <mxCell id="ytusaP-ryzODyK1H7M8E-52" style="edgeStyle=orthogonalEdgeStyle;rounded=0;orthogonalLoop=1;jettySize=auto;html=1;entryX=0.5;entryY=0;entryDx=0;entryDy=0;" edge="1" parent="1" source="ytusaP-ryzODyK1H7M8E-50" target="ytusaP-ryzODyK1H7M8E-51">
          <mxGeometry relative="1" as="geometry" />
        </mxCell>
        <mxCell id="ytusaP-ryzODyK1H7M8E-50" value="登入失敗或點擊忘記密碼" style="rounded=1;whiteSpace=wrap;html=1;" vertex="1" parent="1">
          <mxGeometry x="995.06" y="4555" width="90" height="40" as="geometry" />
        </mxCell>
        <mxCell id="ytusaP-ryzODyK1H7M8E-53" style="edgeStyle=orthogonalEdgeStyle;rounded=0;orthogonalLoop=1;jettySize=auto;html=1;" edge="1" parent="1" source="ytusaP-ryzODyK1H7M8E-51" target="ytusaP-ryzODyK1H7M8E-54">
          <mxGeometry relative="1" as="geometry">
            <mxPoint x="1040.06" y="4720" as="targetPoint" />
          </mxGeometry>
        </mxCell>
        <mxCell id="ytusaP-ryzODyK1H7M8E-51" value="輸入驗證之Email信箱" style="rounded=1;whiteSpace=wrap;html=1;" vertex="1" parent="1">
          <mxGeometry x="1002.56" y="4620" width="75" height="40" as="geometry" />
        </mxCell>
        <mxCell id="ytusaP-ryzODyK1H7M8E-54" value="傳送密碼至Email信箱" style="rounded=1;whiteSpace=wrap;html=1;" vertex="1" parent="1">
          <mxGeometry x="1001.06" y="4690" width="80.06" height="40" as="geometry" />
        </mxCell>
        <mxCell id="ZxicevR8nljUy3uReArG-2" style="rounded=0;orthogonalLoop=1;jettySize=auto;html=1;exitX=1;exitY=0.3333333333333333;exitDx=0;exitDy=0;exitPerimeter=0;entryX=0;entryY=0.5;entryDx=0;entryDy=0;" edge="1" parent="1" source="hw-Cy0S7zGGRTdD7gFje-1" target="ZxicevR8nljUy3uReArG-1">
          <mxGeometry relative="1" as="geometry" />
        </mxCell>
        <mxCell id="ZxicevR8nljUy3uReArG-20" style="rounded=0;orthogonalLoop=1;jettySize=auto;html=1;exitX=1;exitY=0.3333333333333333;exitDx=0;exitDy=0;exitPerimeter=0;entryX=0;entryY=0.5;entryDx=0;entryDy=0;" edge="1" parent="1" source="hw-Cy0S7zGGRTdD7gFje-1" target="ZxicevR8nljUy3uReArG-19">
          <mxGeometry relative="1" as="geometry" />
        </mxCell>
        <mxCell id="ZxicevR8nljUy3uReArG-33" style="rounded=0;orthogonalLoop=1;jettySize=auto;html=1;exitX=1;exitY=0.3333333333333333;exitDx=0;exitDy=0;exitPerimeter=0;entryX=0;entryY=0.5;entryDx=0;entryDy=0;" edge="1" parent="1" source="hw-Cy0S7zGGRTdD7gFje-1" target="ZxicevR8nljUy3uReArG-32">
          <mxGeometry relative="1" as="geometry" />
        </mxCell>
        <mxCell id="hw-Cy0S7zGGRTdD7gFje-1" value="&lt;font style=&quot;vertical-align: inherit;&quot;&gt;&lt;font style=&quot;vertical-align: inherit;&quot;&gt;房客&lt;/font&gt;&lt;/font&gt;" style="shape=umlActor;verticalLabelPosition=bottom;verticalAlign=top;html=1;outlineConnect=0;" vertex="1" parent="1">
          <mxGeometry x="120.25" y="150" width="30" height="60" as="geometry" />
        </mxCell>
        <mxCell id="ZxicevR8nljUy3uReArG-38" style="rounded=0;orthogonalLoop=1;jettySize=auto;html=1;exitX=1;exitY=0.3333333333333333;exitDx=0;exitDy=0;exitPerimeter=0;entryX=0;entryY=0.5;entryDx=0;entryDy=0;" edge="1" parent="1" source="hw-Cy0S7zGGRTdD7gFje-2" target="ZxicevR8nljUy3uReArG-32">
          <mxGeometry relative="1" as="geometry" />
        </mxCell>
        <mxCell id="ZxicevR8nljUy3uReArG-40" style="rounded=0;orthogonalLoop=1;jettySize=auto;html=1;exitX=1;exitY=0.3333333333333333;exitDx=0;exitDy=0;exitPerimeter=0;entryX=0;entryY=0.5;entryDx=0;entryDy=0;" edge="1" parent="1" source="hw-Cy0S7zGGRTdD7gFje-2" target="hw-Cy0S7zGGRTdD7gFje-12">
          <mxGeometry relative="1" as="geometry" />
        </mxCell>
        <mxCell id="hw-Cy0S7zGGRTdD7gFje-2" value="&lt;font style=&quot;vertical-align: inherit;&quot;&gt;&lt;font style=&quot;vertical-align: inherit;&quot;&gt;&lt;font style=&quot;vertical-align: inherit;&quot;&gt;&lt;font style=&quot;vertical-align: inherit;&quot;&gt;房東&lt;/font&gt;&lt;/font&gt;&lt;/font&gt;&lt;/font&gt;" style="shape=umlActor;verticalLabelPosition=bottom;verticalAlign=top;html=1;outlineConnect=0;" vertex="1" parent="1">
          <mxGeometry x="116.50000000000003" y="555" width="30" height="60" as="geometry" />
        </mxCell>
        <mxCell id="ZxicevR8nljUy3uReArG-8" style="edgeStyle=orthogonalEdgeStyle;rounded=0;orthogonalLoop=1;jettySize=auto;html=1;exitX=1;exitY=0.5;exitDx=0;exitDy=0;entryX=0;entryY=0.5;entryDx=0;entryDy=0;" edge="1" parent="1" source="hw-Cy0S7zGGRTdD7gFje-135" target="ZxicevR8nljUy3uReArG-5">
          <mxGeometry relative="1" as="geometry" />
        </mxCell>
        <mxCell id="hw-Cy0S7zGGRTdD7gFje-135" value="審核房東PO文" style="ellipse;whiteSpace=wrap;html=1;" vertex="1" parent="1">
          <mxGeometry x="221.98" y="905" width="90" height="50" as="geometry" />
        </mxCell>
        <mxCell id="ZxicevR8nljUy3uReArG-29" style="rounded=0;orthogonalLoop=1;jettySize=auto;html=1;exitX=1;exitY=0.5;exitDx=0;exitDy=0;entryX=0;entryY=0.5;entryDx=0;entryDy=0;" edge="1" parent="1" source="ZxicevR8nljUy3uReArG-5" target="ZxicevR8nljUy3uReArG-28">
          <mxGeometry relative="1" as="geometry" />
        </mxCell>
        <mxCell id="ZxicevR8nljUy3uReArG-31" style="rounded=0;orthogonalLoop=1;jettySize=auto;html=1;exitX=1;exitY=0.5;exitDx=0;exitDy=0;entryX=0;entryY=0.5;entryDx=0;entryDy=0;" edge="1" parent="1" source="ZxicevR8nljUy3uReArG-5" target="ZxicevR8nljUy3uReArG-30">
          <mxGeometry relative="1" as="geometry" />
        </mxCell>
        <mxCell id="ZxicevR8nljUy3uReArG-5" value="查看待審核&lt;div&gt;PO文&lt;/div&gt;" style="ellipse;whiteSpace=wrap;html=1;" vertex="1" parent="1">
          <mxGeometry x="361.97999999999996" y="905" width="90" height="50" as="geometry" />
        </mxCell>
        <mxCell id="ZxicevR8nljUy3uReArG-6" style="rounded=0;orthogonalLoop=1;jettySize=auto;html=1;exitX=1;exitY=0.3333333333333333;exitDx=0;exitDy=0;exitPerimeter=0;entryX=0;entryY=0.5;entryDx=0;entryDy=0;" edge="1" parent="1" source="hw-Cy0S7zGGRTdD7gFje-131" target="hw-Cy0S7zGGRTdD7gFje-135">
          <mxGeometry relative="1" as="geometry" />
        </mxCell>
        <mxCell id="hw-Cy0S7zGGRTdD7gFje-131" value="管理員" style="shape=umlActor;verticalLabelPosition=bottom;verticalAlign=top;html=1;outlineConnect=0;" vertex="1" parent="1">
          <mxGeometry x="122.69" y="910" width="30" height="60" as="geometry" />
        </mxCell>
        <mxCell id="ZxicevR8nljUy3uReArG-28" value="新增PO文" style="ellipse;whiteSpace=wrap;html=1;" vertex="1" parent="1">
          <mxGeometry x="512.34" y="860" width="90" height="50" as="geometry" />
        </mxCell>
        <mxCell id="ZxicevR8nljUy3uReArG-30" value="退回PO文" style="ellipse;whiteSpace=wrap;html=1;" vertex="1" parent="1">
          <mxGeometry x="512.34" y="945" width="90" height="50" as="geometry" />
        </mxCell>
      </root>
    </mxGraphModel>
  </diagram>
</mxfile>
